<?xml version="1.0" encoding="utf-8"?>
<!-- Generator: Adobe Illustrator 26.2.1, SVG Export Plug-In . SVG Version: 6.00 Build 0)  -->
<svg version="1.1" id="Layer_1" xmlns="http://www.w3.org/2000/svg" xmlns:xlink="http://www.w3.org/1999/xlink" x="0px" y="0px"
	 viewBox="0 0 157.53 132.93" style="enable-background:new 0 0 157.53 132.93;" xml:space="preserve">
<g>
	<path d="M152.81,103.8l-7.14,2.08l-0.37-0.76c-2.63-5.48-7.11-9.9-12.61-12.46l-0.16-0.07c-3.21-1.47-6.64-2.26-10.17-2.37
		c-3.52-0.1-7,0.5-10.29,1.78L82.46,103.5V90.43c0-7.79,3.81-15.11,10.2-19.58c8.87-6.21,19.51-13.66,19.51-13.66
		c1.67-1.17,2.07-3.47,0.91-5.14c-0.69-0.99-1.82-1.58-3.02-1.58c0,0,0,0,0,0c-0.76,0-1.49,0.23-2.11,0.67l-10.65,7.45l0.06-2.15
		c0.02-0.89,0.05-1.82,0.18-2.82c0.67-5.05,2.51-11.3,10.83-14.83c8.72-3.7,14.44-4.29,17.7-4.15c0.52,0.02,0.8,0.09,1.05,0.15
		c0.1,0.02,0.2,0.05,0.33,0.07l0.77,0.12l0.14,1.45c0.17,1.66,0.4,3.94-0.07,8.21c-0.52,4.63-2.24,13.04-7.95,17.39
		c-1.62,1.23-1.93,3.55-0.7,5.17c1.23,1.62,3.55,1.93,5.17,0.7c6.03-4.59,9.67-12.14,10.82-22.45c0.83-7.4-0.01-13.61-0.01-13.67
		c-0.14-1.06-0.74-2-1.63-2.59c0,0-1.04-0.62-2.24-1.02c-1.56-0.52-3.36-0.82-5.35-0.91c-5.85-0.26-12.89,1.33-20.92,4.74
		C93.5,37.07,90.81,48.13,90.21,52.64c-0.44,3.27-0.41,6.7,0.07,10.18l0.08,0.61l-1.94,1.36c-1.48,1.04-2.95,2.31-4.48,3.89
		l-1.53,1.58l-0.18-2.19c-0.39-4.72-1.42-9.45-3.06-14.06l-0.21-0.59l0.44-0.45c0.33-0.33,0.59-0.72,0.77-1.14
		c0.04-0.08,3.33-7.8,3.42-16.98c0.04-4.53-1.06-19.81-16.96-26.41c-10.1-4.19-17.88-6.8-23.14-7.77c-1.92-0.35-3.39-0.48-4.63-0.39
		l-0.07-1l0.07,1c-0.58,0.04-1.04,0.12-1.47,0.24c-0.29,0.08-0.91,0.39-1.27,0.59c-0.76,0.51-1.34,1.4-1.52,2.39
		c-0.01,0.07-1.28,7.45-0.56,16.35c0.99,12.31,5.08,21.59,12.14,27.57c1.55,1.31,3.89,1.12,5.2-0.43c0.64-0.75,0.95-1.71,0.87-2.69
		c-0.08-0.97-0.55-1.89-1.29-2.52c-6.86-5.81-8.98-15.46-9.55-22.53c-0.39-4.84-0.08-7.16,0.2-9.2c0.04-0.34,0.09-0.67,0.13-1
		l0.13-1.07l1.06,0.21c4.87,0.96,11.89,3.34,20.88,7.07c11.11,4.61,12.47,12.85,12.41,19.51c-0.03,2.88-0.48,5.41-0.88,7.29
		l-0.5,2.39l-1.32-2.05c-2.22-3.45-4.74-6.58-7.48-9.33l-9.68-9.68c-0.67-0.67-1.56-1.05-2.5-1.08c-1.03-0.03-2,0.36-2.72,1.08
		c-0.7,0.7-1.08,1.62-1.08,2.61s0.38,1.91,1.08,2.61l9.68,9.68c9.2,9.2,14.27,21.43,14.27,34.45v30.76L45.47,92
		c-3.29-1.28-6.74-1.88-10.29-1.78c-3.54,0.1-6.96,0.9-10.17,2.37l-0.2,0.09c-5.48,2.56-9.94,6.97-12.57,12.44l-0.37,0.76
		l-7.14-2.08c-0.33-0.1-0.66-0.15-1-0.15c-1.65-0.02-3.12,1.08-3.58,2.66c-0.57,1.95,0.56,4.01,2.51,4.58l75.13,21.91
		c0.05,0.01,0.1,0.02,0.15,0.04l0.11,0.02c0.22,0.04,0.44,0.07,0.67,0.07c0.12,0,0.19,0,0.26-0.01c0.18-0.01,0.35-0.03,0.51-0.06
		c0.09-0.02,0.17-0.04,0.24-0.06l0.13-0.04l75.01-21.88c1.95-0.57,3.08-2.62,2.51-4.58C156.81,104.35,154.76,103.23,152.81,103.8z
		 M75.07,124.31l-56.06-16.35l0.66-1.11c1.77-2.98,4.28-5.39,7.31-7.01l-0.76,0.02l1.4-0.35c0.15-0.07,0.3-0.15,0.46-0.22
		c2.31-1.06,4.77-1.63,7.32-1.7l5.52,0.66l0,0c0.63,0.17,1.26,0.38,1.88,0.62l32.29,12.55V124.31z M82.46,124.31v-12.88l0.64-0.25
		c2.53-0.99,14.39-5.59,27.29-10.61l4.36-1.69c2.37-0.92,4.86-1.35,7.4-1.28c2.54,0.07,5,0.65,7.31,1.7
		c3.52,1.61,6.43,4.22,8.41,7.55l0.66,1.11L82.46,124.31z"/>
</g>
</svg>
