<?xml version="1.0" encoding="utf-8"?>
<!-- Generator: Adobe Illustrator 26.2.1, SVG Export Plug-In . SVG Version: 6.00 Build 0)  -->
<svg version="1.1" id="Layer_1" xmlns="http://www.w3.org/2000/svg" xmlns:xlink="http://www.w3.org/1999/xlink" x="0px" y="0px"
	 viewBox="0 0 146.36 146.37" style="enable-background:new 0 0 146.36 146.37;" xml:space="preserve">
<path d="M51.93,45.43L28.56,22.06L0,50.62l23.37,23.37l12.01-12.01l5.52,5.68L18.66,89.73l6.98,6.98l-11.52,11.36l24.18,24.18
	l11.36-11.52l6.98,6.98l22.07-22.23l5.68,5.52L72.37,123l23.37,23.37l28.56-28.56l-23.37-23.37l-12.01,12.01l-5.52-5.52l19.8-19.96
	L86.65,64.25l5.68-5.68c6.12,5.05,13.81,7.8,21.75,7.79c9.01,0.05,17.66-3.51,24.02-9.9l2.43-2.43l-21.91-21.74l7.79-7.79
	c1.98,1.28,4.29,1.96,6.65,1.95c3.53-0.02,6.91-1.41,9.41-3.89c2.49-2.47,3.89-5.83,3.89-9.33c0-3.5-1.4-6.86-3.89-9.33
	C140.01,1.4,136.65,0,133.15,0c-3.5,0-6.86,1.4-9.33,3.89c-2.09,2.06-3.43,4.77-3.78,7.69c-0.35,2.92,0.29,5.87,1.84,8.37
	l-7.79,7.79L92.33,5.83L89.9,8.27c-5.94,6.02-9.45,14.03-9.84,22.48c-0.39,8.45,2.36,16.74,7.73,23.28l-5.68,5.68L65.4,43.16
	l-19.96,19.8l-5.52-5.52L51.93,45.43z M115.05,117.8l-19.31,19.31L81.46,123l19.47-19.47L115.05,117.8z M128.36,8.43
	c1.28-1.19,2.95-1.88,4.71-1.95c1.8,0.05,3.53,0.74,4.87,1.95c1.23,1.29,1.91,3.01,1.88,4.79c-0.02,1.78-0.74,3.49-2,4.74
	c-1.26,1.26-2.97,1.97-4.75,1.99c-1.77,0.02-3.47-0.68-4.71-1.95c-1.26-1.28-1.96-3-1.96-4.79C126.4,11.42,127.1,9.7,128.36,8.43
	L128.36,8.43z M92.33,15.24l38.79,38.78c-5.31,4.15-11.96,6.21-18.69,5.79c-6.73-0.42-13.07-3.29-17.83-8.06
	c-5.21-5.14-8.13-12.16-8.11-19.47C86.49,26.11,88.55,20.12,92.33,15.24L92.33,15.24z M38.3,123l-14.93-14.93l6.82-6.82l14.93,14.93
	L38.3,123z M94.12,80.97l-37.49,37.48L27.91,89.73L65.4,52.24L94.12,80.97z M9.25,50.62l19.31-19.31l14.28,14.12L23.37,64.9
	L9.25,50.62z"/>
</svg>
