<?xml version="1.0" encoding="utf-8"?>
<!-- Generator: Adobe Illustrator 26.2.1, SVG Export Plug-In . SVG Version: 6.00 Build 0)  -->
<svg version="1.1" id="Layer_1" xmlns="http://www.w3.org/2000/svg" xmlns:xlink="http://www.w3.org/1999/xlink" x="0px" y="0px"
	 viewBox="0 0 259.17 94.13" style="enable-background:new 0 0 259.17 94.13;" xml:space="preserve">
<g>
	<path d="M-0.71,94.13h256.33c2.13,0,3.55-1.42,3.55-3.55c0-2.13-1.42-3.55-3.55-3.55h-8.53c-0.35-16.34-13.14-29.84-29.48-31.61
		V41.57c6.04,0,17.4-1.07,25.22-8.88c10.65-10.3,9.59-28.06,9.59-28.77c0-1.78-1.42-3.2-3.2-3.2c-0.71,0-18.47-1.78-29.12,8.88
		c-2.49,2.49-4.62,5.68-6.04,8.53c-1.42-2.84-3.2-5.68-5.33-8.17c-10.3-10.66-28.06-9.59-28.77-9.59c-1.78,0-3.2,1.42-3.2,3.2
		c0,0.71-1.78,18.47,8.88,29.12c7.81,7.81,19.18,9.23,25.22,9.59v13.5c-15.98,1.78-28.77,15.27-29.48,31.61h-21.26v-0.71
		c0-17.05-12.79-30.9-29.48-32.68V41.23c6.04,0,17.4-1.07,25.57-8.88c10.66-10.3,9.59-28.06,9.59-28.77c0-1.78-1.42-3.2-3.2-3.2
		c-0.71,0-18.47-1.78-29.12,8.88c-2.49,2.49-4.62,5.68-6.04,8.53c-1.42-2.84-3.2-5.68-5.33-8.17c-10.3-10.66-28.06-9.59-28.77-9.59
		c-1.78,0-3.2,1.42-3.2,3.2c0,0.71-1.78,18.47,8.88,29.12c7.81,7.81,19.18,9.23,25.22,9.59v12.42
		c-16.34,1.78-29.48,15.63-29.48,32.68v0.71H71.75C71.39,71.4,58.6,57.91,42.27,56.13V42.28c6.04,0,17.4-1.07,25.57-8.88
		c10.66-10.3,9.59-28.06,9.59-28.77c0-1.78-1.42-3.2-3.2-3.2c-0.71,0-18.47-1.78-29.12,8.88c-2.49,2.49-4.62,5.68-6.04,8.53
		c-1.42-2.84-3.2-5.68-5.33-8.17C23.44,0.02,5.68,1.08,4.97,1.08c-1.78,0-3.2,1.42-3.2,3.2c0,0.71-1.78,18.47,8.88,29.12
		c7.81,7.81,19.18,9.23,25.22,9.59v13.5C19.89,58.26,7.1,71.76,6.39,88.1H0c-2.13,0-3.55,1.42-3.55,3.55
		C-3.55,93.77-2.48,94.13-0.71,94.13L-0.71,94.13z M225.43,14.22c6.04-5.68,15.27-6.75,20.24-6.75c-0.35,4.97-1.42,14.21-7.46,20.24
		c-6.04,5.68-15.27,6.75-20.24,6.75C218.32,29.49,219.39,20.26,225.43,14.22z M190.98,27.36c-5.68-6.04-6.75-15.27-6.75-20.24
		c4.97,0.35,14.21,1.42,20.24,7.46c5.33,5.68,6.75,14.21,6.75,19.18v1.07C205.89,34.46,196.66,33.4,190.98,27.36L190.98,27.36z
		 M214.42,62.17c13.85,0,25.22,11.01,25.93,24.86l-51.85,0C189.2,73.18,200.56,62.17,214.42,62.17L214.42,62.17z M138.82,13.88
		c6.04-5.68,15.27-6.75,20.24-6.75c-0.35,4.97-1.42,14.21-7.46,20.24c-6.04,5.68-15.27,6.75-20.24,6.75
		C131.36,28.79,132.78,19.56,138.82,13.88z M104.01,26.66c-5.68-6.04-6.75-15.27-6.75-20.24c4.97,0.35,14.21,1.42,20.24,7.46
		c5.33,5.68,6.75,13.85,6.75,19.18v1.07C119.28,34.12,109.7,32.7,104.01,26.66L104.01,26.66z M101.88,86.32
		c0-14.21,11.72-25.93,25.93-25.93s25.93,11.72,25.93,25.93v0.71h-52.21C101.53,86.67,101.88,86.67,101.88,86.32L101.88,86.32z
		 M50.08,14.22c6.04-5.68,15.27-6.75,20.24-6.75c-0.35,4.97-1.42,14.21-7.46,20.24c-6.04,5.68-15.27,6.75-20.24,6.75
		C42.62,29.49,44.04,20.26,50.08,14.22z M15.27,27.36C9.59,21.32,8.53,12.09,8.53,7.12c4.97,0.35,14.21,1.42,20.24,7.46
		c5.33,5.68,6.75,13.85,6.75,19.18v1.07C30.19,34.46,20.96,33.4,15.27,27.36L15.27,27.36z M38.72,62.17
		c13.85,0,25.22,11.01,25.93,24.86l-51.5,0C13.5,73.17,24.86,62.17,38.72,62.17L38.72,62.17z"/>
</g>
</svg>
