<?xml version="1.0" encoding="utf-8"?>
<!-- Generator: Adobe Illustrator 26.2.1, SVG Export Plug-In . SVG Version: 6.00 Build 0)  -->
<svg version="1.1" id="Layer_1" xmlns="http://www.w3.org/2000/svg" xmlns:xlink="http://www.w3.org/1999/xlink" x="0px" y="0px"
	 viewBox="0 0 165.03 151.14" style="enable-background:new 0 0 165.03 151.14;" xml:space="preserve">
<g>
	<path d="M141.96,83.56c-1.1,0-2.25,0.09-3.63,0.28L137.19,84V33.85c0-1.41-0.83-2.7-2.1-3.3L70.13,0.39
		c-0.68-0.34-1.42-0.46-2.15-0.36c-0.31,0.07-0.6,0.19-0.87,0.33L2.1,30.55C0.83,31.14,0,32.44,0,33.85v64.96
		c0,1.41,0.83,2.7,2.1,3.3l64.96,30.16c0.98,0.46,2.1,0.45,3.07,0l19.46-9.13l0.48,0.69c1.85,2.63,4.07,5.19,6.77,7.83
		c7.83,7.65,18.04,14.18,25.5,18.94c1.17,0.73,2.69,0.73,3.86,0c7.45-4.76,17.67-11.28,25.5-18.94
		c8.97-8.77,13.33-17.57,13.33-26.91C164.85,94.53,155.97,83.56,141.96,83.56z M68.6,7.73l21.55,10L35.21,44.15l-23.99-9.81
		L68.6,7.73z M64.96,123.21L7.28,96.47V40.63l57.68,23.51V123.21z M68.6,57.69l-24.29-9.84l54.37-26.2l27.3,12.69L68.6,57.69z
		 M83.51,104.7c0,3.84,0.73,7.59,2.18,11.21l0.35,0.88l-13.81,6.42V64.13l57.68-23.5v46l-0.5,0.29c-1.85,1.06-3.27,2.07-4.45,3.19
		l-0.69,0.65l-0.69-0.65c-4.38-4.16-10.57-6.54-17-6.54C92.57,83.57,83.7,94.53,83.51,104.7z M146.65,126.42
		c-6.06,5.93-14.08,11.37-21.83,16.36l-0.54,0.35l-0.54-0.35c-7.76-5-15.78-10.45-21.83-16.36c-7.42-7.26-11.05-14.3-11.1-21.52
		l0-0.18c0.19-5.76,5.21-13.87,15.79-13.87c6.79,0,12.75,4.44,14.44,7.64c0.63,1.24,1.87,2,3.25,2s2.62-0.76,3.24-1.99
		c1.69-3.21,7.65-7.65,14.45-7.65c10.58,0,15.6,8.11,15.79,13.87l0,0.1C157.7,112.12,154.07,119.16,146.65,126.42z"/>
</g>
</svg>
