<?xml version="1.0" encoding="utf-8"?>
<!-- Generator: Adobe Illustrator 26.2.1, SVG Export Plug-In . SVG Version: 6.00 Build 0)  -->
<svg version="1.1" id="_x31_" xmlns="http://www.w3.org/2000/svg" xmlns:xlink="http://www.w3.org/1999/xlink" x="0px" y="0px"
	 viewBox="0 0 293.61 360" style="enable-background:new 0 0 293.61 360;" xml:space="preserve">
<style type="text/css">
	.st0{fill:#303030;}
	.st1{fill:#E3DFDD;}
	.st2{opacity:0.8;}
	.st3{opacity:0.8;fill:#E3DFDD;}
	.st4{fill:#EAE9E8;}
	.st5{opacity:0.7;fill:#E3DFDD;}
	.st6{fill:#564944;}
	.st7{fill:#81AF32;}
	.st8{opacity:0.3;}
	.st9{fill:#568F10;}
	.st10{opacity:0.2;fill:#C6D66D;}
	.st11{fill:#F7F4F2;}
	.st12{fill:url(#SVGID_1_);}
	.st13{fill:url(#SVGID_00000151512330234776935580000006978543920731089838_);}
	.st14{fill:url(#SVGID_00000013190361551028337340000014990652759215080843_);}
	.st15{opacity:0.3;fill:#568F10;}
	.st16{fill:url(#SVGID_00000044897366846065732620000009517231921328772005_);}
	.st17{fill:url(#SVGID_00000155144624355510490200000012010818003766994074_);}
	.st18{fill:url(#SVGID_00000135656292430640701070000014940447265501716912_);}
	.st19{fill:url(#SVGID_00000103954264056878338150000005202162643088374944_);}
	.st20{fill:url(#SVGID_00000111884804101241997760000006696202340561364138_);}
	.st21{fill:url(#SVGID_00000057840821147084021400000002426191417411076770_);}
	.st22{fill:url(#SVGID_00000146500368238852147760000001696841309252006846_);}
	.st23{fill:url(#SVGID_00000124843653889956547030000002766462736036036493_);}
	.st24{fill:url(#SVGID_00000055705561901709742430000017767256869087563663_);}
	.st25{fill:url(#SVGID_00000139286079313105255450000010935868446029565842_);}
	.st26{fill:url(#SVGID_00000053511948588941217480000016315858732551741083_);}
	.st27{opacity:0.5;fill:#564944;}
	.st28{opacity:0.6;}
</style>
<g>
	<g>
		<rect x="272.4" y="26.82" class="st0" width="6.75" height="333.18"/>
		<rect x="30.77" y="26.82" class="st0" width="6.75" height="333.18"/>
		
			<rect x="151.58" y="-52.35" transform="matrix(-1.836970e-16 1 -1 -1.836970e-16 226.8017 -83.1183)" class="st0" width="6.75" height="248.39"/>
		
			<rect x="151.58" y="16.87" transform="matrix(-1.836970e-16 1 -1 -1.836970e-16 296.0272 -13.8928)" class="st0" width="6.75" height="248.39"/>
		
			<rect x="151.58" y="86.77" transform="matrix(-1.836970e-16 1 -1 -1.836970e-16 365.919 55.999)" class="st0" width="6.75" height="248.39"/>
		
			<rect x="151.58" y="155.33" transform="matrix(-1.836970e-16 1 -1 -1.836970e-16 434.4781 124.5581)" class="st0" width="6.75" height="248.39"/>
	</g>
	<path class="st0" d="M14.07,296.63c-0.04,0-0.08,0-0.12,0c-0.74-0.06-1.29-0.72-1.23-1.46c0.83-9.57,0.02-37.22-0.99-72.23
		C8.58,114.35,6.95,16.27,21.32,8.74c3.03-1.6,5.28-0.96,6.63-0.14c6.98,4.21,7.23,23.37,7.24,25.54c0,0.75-0.6,1.35-1.35,1.35h0
		c-0.75,0-1.35-0.6-1.35-1.35c-0.01-5.48-1.11-20.33-5.93-23.23c-1.11-0.67-2.41-0.6-3.98,0.22C8.51,18.5,12.22,146.42,14.43,222.85
		c1.02,35.1,1.82,62.81,0.98,72.54C15.36,296.1,14.77,296.63,14.07,296.63z"/>
	<g>
		<path class="st1" d="M45.02,301.47H22.51v-41.65c0-6.22,5.04-11.26,11.26-11.26h233.38v-46.9H33.77
			c-6.22,0-11.26-5.04-11.26-11.26v-69.41c0-6.22,5.04-11.26,11.26-11.26h233.38v-46.9H33.77c-6.22,0-11.26-5.04-11.26-11.26V31.32
			h22.51v9H278.4c6.22,0,11.26,5.04,11.26,11.26v69.41c0,6.22-5.04,11.26-11.26,11.26H45.02v46.9H278.4
			c6.22,0,11.26,5.04,11.26,11.26v69.41c0,6.22-5.04,11.26-11.26,11.26H45.02V301.47z"/>
		<rect x="24.76" y="282.33" class="st1" width="18.01" height="19.14"/>
		<g class="st2">
			<path class="st3" d="M267.33,100.36V54.39H25.33c-0.87,0-1.7-0.12-2.51-0.3c1.14,5,5.6,8.75,10.95,8.75h233.38v37.52H267.33z"/>
			<path class="st3" d="M23.95,195.8c1.92,3.48,5.57,5.86,9.82,5.86h233.28v-5.72H25.33C24.85,195.94,24.4,195.86,23.95,195.8z"/>
			<rect x="36.58" y="31.32" class="st3" width="8.44" height="9"/>
			<path class="st3" d="M279.65,179.28c0.97,1.46,1.56,3.35,1.56,5.41v64.44c0,6.22-2.06,12.66-11.26,12.66H36.58v39.68h8.44v-30.39
				H278.4c6.22,0,11.26-5.04,11.26-11.26v-69.41C289.66,184.62,285.27,179.91,279.65,179.28z"/>
			<path class="st3" d="M280.6,40.55c0.37,0.58,0.62,1.35,0.62,2.59v68.47c0,6.22-5.04,11.26-11.26,11.26H36.58v56.19h8.44v-46.81
				H278.4c6.22,0,11.26-5.04,11.26-11.26V51.58C289.66,46.12,285.76,41.57,280.6,40.55z"/>
		</g>
		<g>
			<rect x="60.29" y="248.58" class="st3" width="5.37" height="22.49"/>
			<rect x="22.61" y="283.68" class="st3" width="22.45" height="5.37"/>
			<path class="st1" d="M47.28,282.33H20.26v-22.51c0-7.46,6.05-13.51,13.51-13.51h24.2v27.01H47.28V282.33z"/>
			<polygon class="st3" points="36.86,261.79 36.86,282.33 47.28,282.33 47.28,273.33 57.97,273.33 57.97,261.79 			"/>
			<rect x="20.36" y="278.99" class="st3" width="26.96" height="2.46"/>
			<rect x="54.65" y="246.31" class="st3" width="2.46" height="26.96"/>
			<rect x="56.91" y="244.62" class="st4" width="3.8" height="30.39"/>
			
				<rect x="34.47" y="243.84" transform="matrix(0.7071 -0.7071 0.7071 0.7071 -174.7103 102.4996)" class="st4" width="3.8" height="36.61"/>
			<rect x="18.64" y="281.46" class="st4" width="30.39" height="3.8"/>
			
				<rect x="41.16" y="259.97" transform="matrix(0.7071 -0.7071 0.7071 0.7071 -177.4773 109.1814)" class="st1" width="3.8" height="17.71"/>
			<rect x="56.91" y="260.57" class="st1" width="3.8" height="14.45"/>
			<rect x="33.96" y="281.46" class="st1" width="15.07" height="3.8"/>
			<path class="st5" d="M25.01,259.11c4.27-0.29,3.31,11.59,0.1,11.59C21.91,270.7,21.35,259.36,25.01,259.11z"/>
		</g>
		<g>
			<rect x="60.29" y="179.18" class="st3" width="5.37" height="22.49"/>
			<rect x="22.61" y="161.19" class="st3" width="22.45" height="5.37"/>
			<path class="st1" d="M47.28,167.91H20.26v22.51c0,7.46,6.05,13.51,13.51,13.51h24.2v-27.02H47.28V167.91z"/>
			<polygon class="st3" points="36.86,188.45 36.86,167.91 47.28,167.91 47.28,176.91 57.97,176.91 57.97,188.45 			"/>
			<rect x="20.36" y="168.79" class="st3" width="26.96" height="2.46"/>
			<rect x="54.65" y="176.97" class="st3" width="2.46" height="26.96"/>
			<rect x="56.91" y="175.23" class="st4" width="3.8" height="30.39"/>
			
				<rect x="18.07" y="186.2" transform="matrix(0.7071 -0.7071 0.7071 0.7071 -122.3537 80.8117)" class="st4" width="36.61" height="3.8"/>
			<rect x="18.64" y="164.98" class="st4" width="30.39" height="3.8"/>
			
				<rect x="34.2" y="179.52" transform="matrix(0.7071 -0.7071 0.7071 0.7071 -115.67 83.5795)" class="st1" width="17.71" height="3.8"/>
			<rect x="56.91" y="175.23" class="st1" width="3.8" height="14.45"/>
			<rect x="33.96" y="164.98" class="st1" width="15.07" height="3.8"/>
			<path class="st5" d="M25.01,191.13c4.27,0.29,3.31-11.59,0.1-11.59C21.91,179.54,21.35,190.88,25.01,191.13z"/>
		</g>
		<g>
			<rect x="60.29" y="40.16" class="st3" width="5.37" height="22.49"/>
			<path class="st1" d="M47.28,28.9H20.26v22.51c0,7.46,6.05,13.51,13.51,13.51h24.2V37.9H47.28V28.9z"/>
			<polygon class="st3" points="36.86,49.44 36.86,28.9 47.28,28.9 47.28,37.9 57.97,37.9 57.97,49.44 			"/>
			<rect x="20.36" y="29.77" class="st3" width="26.96" height="2.46"/>
			<rect x="54.65" y="37.96" class="st3" width="2.46" height="26.96"/>
			<rect x="56.91" y="36.21" class="st4" width="3.8" height="30.39"/>
			
				<rect x="18.07" y="47.19" transform="matrix(0.7071 -0.7071 0.7071 0.7071 -24.0562 40.0951)" class="st4" width="36.61" height="3.8"/>
			<rect x="18.64" y="25.96" class="st4" width="30.39" height="3.8"/>
			
				<rect x="34.2" y="40.5" transform="matrix(0.7071 -0.7071 0.7071 0.7071 -17.3729 42.864)" class="st1" width="17.71" height="3.8"/>
			<rect x="56.91" y="36.21" class="st1" width="3.8" height="14.45"/>
			<rect x="33.96" y="25.96" class="st1" width="15.07" height="3.8"/>
			<path class="st5" d="M25.01,52.12c4.27,0.29,3.31-11.59,0.1-11.59C21.91,40.53,21.35,51.87,25.01,52.12z"/>
		</g>
		<g>
			<rect x="60.29" y="109.75" class="st3" width="5.37" height="22.49"/>
			<rect x="22.61" y="144.86" class="st3" width="22.45" height="5.37"/>
			<path class="st1" d="M47.28,143.51H20.26V121c0-7.46,6.05-13.51,13.51-13.51h24.2v27.01H47.28V143.51z"/>
			<polygon class="st3" points="36.86,122.97 36.86,143.51 47.28,143.51 47.28,134.5 57.97,134.5 57.97,122.97 			"/>
			<rect x="20.36" y="140.17" class="st3" width="26.96" height="2.46"/>
			<rect x="54.65" y="107.49" class="st3" width="2.46" height="26.96"/>
			<rect x="56.91" y="105.8" class="st4" width="3.8" height="30.39"/>
			
				<rect x="34.47" y="105.01" transform="matrix(0.7071 -0.7071 0.7071 0.7071 -76.5463 61.8376)" class="st4" width="3.8" height="36.61"/>
			<rect x="18.64" y="142.64" class="st4" width="30.39" height="3.8"/>
			
				<rect x="41.16" y="121.15" transform="matrix(0.7071 -0.7071 0.7071 0.7071 -79.3146 68.521)" class="st1" width="3.8" height="17.71"/>
			<rect x="56.91" y="121.75" class="st1" width="3.8" height="14.45"/>
			<rect x="33.96" y="142.64" class="st1" width="15.07" height="3.8"/>
			<path class="st5" d="M25.01,120.29c4.27-0.29,3.31,11.59,0.1,11.59C21.91,131.88,21.35,120.54,25.01,120.29z"/>
		</g>
		<g>
			<rect x="246.59" y="248.56" class="st3" width="5.37" height="22.53"/>
			<rect x="267.19" y="230.51" class="st3" width="22.45" height="5.37"/>
			<path class="st1" d="M264.97,237.23h27.02v22.51c0,7.46-6.05,13.51-13.51,13.51h-24.2v-27.01h10.69V237.23z"/>
			<g>
				<path class="st3" d="M279.89,237.23v18.18c0,3.72-3.02,6.74-6.74,6.74h-18.87v11.09h24.2c7.46,0,13.51-6.05,13.51-13.51v-22.51
					H279.89z"/>
			</g>
			<rect x="264.94" y="238.11" class="st3" width="26.96" height="2.46"/>
			<rect x="255.14" y="246.3" class="st3" width="2.46" height="26.96"/>
			<rect x="251.53" y="244.55" class="st4" width="3.8" height="30.39"/>
			
				<rect x="273.98" y="239.12" transform="matrix(0.7071 -0.7071 0.7071 0.7071 -101.2235 270.4711)" class="st4" width="3.8" height="36.61"/>
			<rect x="263.22" y="234.3" class="st4" width="30.39" height="3.8"/>
			
				<rect x="280.24" y="254.23" transform="matrix(0.7071 -0.7071 0.7071 0.7071 -103.817 276.7323)" class="st1" width="3.8" height="18.9"/>
			<rect x="251.53" y="260.5" class="st1" width="3.8" height="14.45"/>
			<rect x="278.54" y="234.3" class="st1" width="15.07" height="3.8"/>
			<path class="st5" d="M277.61,243.7c0.25,3.37-9.78,2.62-9.78,0.08S277.39,240.8,277.61,243.7z"/>
		</g>
		<g>
			<rect x="267.06" y="216.84" class="st3" width="22.53" height="5.37"/>
			<rect x="249.01" y="179.15" class="st3" width="5.37" height="22.45"/>
			<path class="st1" d="M255.73,203.82v-27.01h22.51c7.46,0,13.51,6.05,13.51,13.51v24.2h-27.01v-10.69H255.73z"/>
			<g>
				<path class="st3" d="M255.73,188.91h18.18c3.72,0,6.74,3.02,6.74,6.74v18.87h11.09v-24.2c0-7.46-6.05-13.51-13.51-13.51h-22.51
					V188.91z"/>
			</g>
			<rect x="256.61" y="176.9" class="st3" width="2.46" height="26.96"/>
			<rect x="264.79" y="211.19" class="st3" width="26.96" height="2.46"/>
			<rect x="263.05" y="213.46" class="st4" width="30.39" height="3.8"/>
			
				<rect x="257.61" y="191.02" transform="matrix(0.7071 -0.7071 0.7071 0.7071 -55.6 251.6097)" class="st4" width="36.61" height="3.8"/>
			<rect x="252.8" y="175.19" class="st4" width="3.8" height="30.39"/>
			
				<rect x="272.73" y="184.76" transform="matrix(0.7071 -0.7071 0.7071 0.7071 -49.3387 254.2032)" class="st1" width="18.9" height="3.8"/>
			<rect x="278.99" y="213.46" class="st1" width="14.45" height="3.8"/>
			<rect x="252.8" y="175.19" class="st1" width="3.8" height="15.07"/>
			<path class="st5" d="M262.19,191.19c3.38-0.25,2.62,9.78,0.08,9.78C259.74,200.97,259.3,191.4,262.19,191.19z"/>
		</g>
		<g>
			<rect x="246.59" y="109.69" class="st3" width="5.37" height="22.53"/>
			<rect x="267.19" y="91.64" class="st3" width="22.45" height="5.37"/>
			<path class="st1" d="M264.97,98.36h27.02v22.51c0,7.46-6.05,13.51-13.51,13.51h-24.2v-27.01h10.69V98.36z"/>
			<g>
				<path class="st3" d="M279.89,98.36v18.18c0,3.72-3.02,6.74-6.74,6.74h-18.87v11.09h24.2c7.46,0,13.51-6.05,13.51-13.51V98.36
					H279.89z"/>
			</g>
			<rect x="264.94" y="99.24" class="st3" width="26.96" height="2.46"/>
			<rect x="255.14" y="107.42" class="st3" width="2.46" height="26.96"/>
			<rect x="251.53" y="105.68" class="st4" width="3.8" height="30.39"/>
			
				<rect x="273.98" y="100.24" transform="matrix(0.7071 -0.7071 0.7071 0.7071 -3.0254 229.7961)" class="st4" width="3.8" height="36.61"/>
			<rect x="263.22" y="95.43" class="st4" width="30.39" height="3.8"/>
			
				<rect x="280.24" y="115.36" transform="matrix(0.7071 -0.7071 0.7071 0.7071 -5.6189 236.0573)" class="st1" width="3.8" height="18.9"/>
			<rect x="251.53" y="121.62" class="st1" width="3.8" height="14.45"/>
			<rect x="278.54" y="95.43" class="st1" width="15.07" height="3.8"/>
			<path class="st5" d="M277.61,104.82c0.25,3.38-9.78,2.62-9.78,0.08C267.82,102.37,277.39,101.93,277.61,104.82z"/>
		</g>
		<g>
			<rect x="267.06" y="77.97" class="st3" width="22.53" height="5.37"/>
			<rect x="249.01" y="40.28" class="st3" width="5.37" height="22.45"/>
			<path class="st1" d="M255.73,64.95V37.94h22.51c7.46,0,13.51,6.05,13.51,13.51v24.2h-27.01V64.95H255.73z"/>
			<g>
				<path class="st3" d="M255.73,50.04h18.18c3.72,0,6.74,3.02,6.74,6.74v18.87h11.09v-24.2c0-7.46-6.05-13.51-13.51-13.51h-22.51
					V50.04z"/>
			</g>
			<rect x="256.61" y="38.03" class="st3" width="2.46" height="26.96"/>
			<rect x="264.79" y="72.32" class="st3" width="26.96" height="2.46"/>
			<rect x="263.05" y="74.59" class="st4" width="30.39" height="3.8"/>
			
				<rect x="257.61" y="52.15" transform="matrix(0.7071 -0.7071 0.7071 0.7071 42.5968 210.933)" class="st4" width="36.61" height="3.8"/>
			<rect x="252.8" y="36.31" class="st4" width="3.8" height="30.39"/>
			
				<rect x="272.73" y="45.89" transform="matrix(0.7071 -0.7071 0.7071 0.7071 48.8568 213.5248)" class="st1" width="18.9" height="3.8"/>
			<rect x="278.99" y="74.59" class="st1" width="14.45" height="3.8"/>
			<rect x="252.8" y="36.31" class="st1" width="3.8" height="15.07"/>
			<path class="st5" d="M262.19,52.32c3.38-0.25,2.62,9.78,0.08,9.78C259.74,62.1,259.3,52.53,262.19,52.32z"/>
		</g>
	</g>
	<g>
		<g>
			<g>
				<path class="st6" d="M79.2,40.37c1.42,1.85,5.26,5.49,13.45,5.49s12.26-3.64,13.81-5.49H79.2z"/>
			</g>
			<g>
				<path class="st7" d="M113.71,9.93c-7.65,1.76-11.67,6.99-15.2,13.52c-0.65,1.2-1.19,2.51-1.74,3.8
					c0.49-1.66,1.05-3.36,1.74-5.18c1.52-3.98,3.12-11.19-0.28-11.45c-2.61-0.19-4.48,6.53-4.75,9c-0.21,1.99-0.37,4.06-0.48,6.14
					c-0.11-0.96-0.24-1.91-0.41-2.83c-1.24-7.04-8.68-27.54-13.13-21.99c-0.52,0.65-0.69,2.46-0.67,3.29
					c0.15,6.96,4.66,12.94,7.84,19.13c1.89,3.68,3.32,7.58,4.32,11.59c-0.78-2.34-1.72-4.62-3.02-6.72
					c-3.36-5.44-8.98-9.79-15.36-10.29c-2-0.16-5.49,0.06-6.13,1.96c-2.05,6.12,15.58,6.82,19.73,11.13
					c1.68,1.74,2.92,3.83,3.94,5.95c-4.65-6.78-14.53-6.84-14.2-3.23c0.22,2.39,8.41,2.96,11.29,5.11c3.6,2.68,4.2,4.76,5.52,7.65
					l0.39,0.13c-0.01-0.08-0.03-0.18-0.05-0.26l0.31,0.03l0.02,0.03c0-0.01,0-0.02,0-0.03l0.38,0.04
					c1.41-5.79,5.32-10.64,10.61-13.14c1.76-0.83,3.66-1.41,5.4-2.29c3.71-1.86,5.56-5.5-0.94-6.51c-2.13-0.33-4.22,0.04-5.83,1.21
					c-3.84,2.77-4.71,5.82-6.66,10.61c-0.39,0.97-1.01,2.28-1.61,3.68c1.15-5.62,3.23-12.23,8.65-15.91
					c5.42-3.68,9.34-4.62,14.66-8.55C122.3,12.43,122.04,8.01,113.71,9.93z"/>
				<g class="st8">
					<path class="st9" d="M95.11,34.6c-1.93,6.02-2.19,9.58-2.13,11.38c0.04,0.23,0.11,0.44,0.14,0.67
						c-0.01-0.08-0.03-0.18-0.05-0.26l0.31,0.03l0.02,0.03c0-0.01,0-0.02,0-0.03l0.38,0.04c1.41-5.79,5.32-10.64,10.61-13.14
						c1.76-0.83,3.66-1.41,5.4-2.29c2.25-1.13,3.79-2.92,3.21-4.37c-1.43-0.28-5.01-0.71-8.43,0.97c-4.41,2.16-7.5,8.96-8.44,10.74
						c-0.94,1.78-2.53,5.42-2.53,5.42s0.36-1.17,1.14-3.77l0,0c1.15-5.62,3.23-12.23,8.65-15.91c5.42-3.68,9.34-4.62,14.66-8.55
						c2.2-1.63,3.16-3.59,2.43-4.84c-2.49,0.4-7.17,1.5-11.59,4.55C102.52,19.69,98.11,25.22,95.11,34.6z"/>
					<path class="st9" d="M96.08,22.01c-1.38,5.35-1.8,11.97-1.8,11.97c0.8-2.82,2.2-6.07,2.5-6.76c0.49-1.65,1.04-3.34,1.73-5.14
						c1.52-3.98,3.12-11.19-0.28-11.45C98.29,12.39,97.35,17.09,96.08,22.01z"/>
					<path class="st9" d="M87.6,17.06c3.17,8.14,4.92,18.2,4.92,18.2l0.48-9.6c0,0.04-0.01,0.07-0.01,0.11
						c-0.11-0.96-0.24-1.91-0.41-2.83c-1.18-6.68-7.93-25.44-12.42-22.6C77.85,2.9,85.61,11.94,87.6,17.06z"/>
					<path class="st9" d="M89.1,32.63c-1.88-3.56-7.13-7.69-12.57-10.04c-4.21-1.81-8.38-2.5-10.07-2.72c0,0.01-0.01,0.02-0.02,0.03
						c-2.05,6.12,15.58,6.82,19.73,11.13c1.68,1.74,2.92,3.83,3.94,5.95l1.23,1.84C91.34,38.82,90.98,36.2,89.1,32.63z"/>
					<path class="st9" d="M86.29,35.45c-3.51-2.06-8.45-2.32-10.19-2.34c-0.07,0.21-0.2,0.4-0.18,0.65
						c0.22,2.39,8.41,2.96,11.29,5.11c3.6,2.68,4.2,4.76,5.52,7.65l0.39,0.13c-0.03-0.23-0.11-0.44-0.14-0.67
						C92.29,41.63,90.39,37.85,86.29,35.45z"/>
				</g>
				<path class="st10" d="M81.1,2.39c-2.95,0.76,0.41,10.28,2.65,10.44C85.98,12.99,84.04,1.64,81.1,2.39z"/>
				<path class="st10" d="M118.76,11.05c-0.78-2.94-10.28,0.48-10.42,2.72C108.2,16.01,119.53,14,118.76,11.05z"/>
				<path class="st10" d="M69.11,19.66c0.21,2.77,9.91,3.93,10.33,2.09C80.01,19.31,68.9,16.89,69.11,19.66z"/>
				<path class="st10" d="M77.64,33.05c0.29,1.86,6.92,2.13,7.11,0.86C85,32.23,77.35,31.19,77.64,33.05z"/>
				<path class="st10" d="M95.68,18.85c1.89-0.02,3.09-6.55,1.86-6.92C95.91,11.45,93.8,18.87,95.68,18.85z"/>
				<path class="st10" d="M103.54,27.8c0.57,2.4,7.71,0.37,7.42-1.26C110.58,24.47,102.92,25.16,103.54,27.8z"/>
				<path class="st10" d="M84.51,13.86c-1.38,0.59,0.98,4.97,2.08,4.88C87.69,18.65,85.89,13.27,84.51,13.86z"/>
				<path class="st10" d="M107.74,14.82c-0.94-1.17-4.53,2.27-4.14,3.31C103.98,19.16,108.68,15.99,107.74,14.82z"/>
			</g>
			<path class="st11" d="M92.65,45.86c-8.19,0-12.03-3.64-13.45-5.49c0,0,2.26,7.89,13.45,7.89c11.19,0,13.81-7.89,13.81-7.89
				C104.91,42.22,100.84,45.86,92.65,45.86z"/>
		</g>
		<g>
			<g>
				<path class="st6" d="M204.33,40.37c1.42,1.85,5.26,5.49,13.45,5.49c8.19,0,12.26-3.64,13.81-5.49H204.33z"/>
			</g>
			<g>
				<path class="st7" d="M238.84,9.93c-7.65,1.76-11.67,6.99-15.2,13.52c-0.65,1.2-1.19,2.51-1.74,3.8
					c0.49-1.66,1.05-3.36,1.74-5.18c1.52-3.98,3.12-11.19-0.28-11.45c-2.61-0.19-4.48,6.53-4.75,9c-0.21,1.99-0.37,4.06-0.48,6.14
					c-0.11-0.96-0.24-1.91-0.41-2.83c-1.24-7.04-8.68-27.54-13.13-21.99c-0.52,0.65-0.69,2.46-0.67,3.29
					c0.15,6.96,4.66,12.94,7.84,19.13c1.89,3.68,3.32,7.58,4.32,11.59c-0.78-2.34-1.72-4.62-3.02-6.72
					c-3.36-5.44-8.98-9.79-15.36-10.29c-2-0.16-5.49,0.06-6.13,1.96c-2.05,6.12,15.58,6.82,19.73,11.13
					c1.68,1.74,2.92,3.83,3.94,5.95c-4.65-6.78-14.53-6.84-14.2-3.23c0.22,2.39,8.41,2.96,11.29,5.11c3.6,2.68,4.2,4.76,5.52,7.65
					l0.39,0.13c-0.02-0.08-0.03-0.18-0.05-0.26l0.31,0.03l0.02,0.03c0-0.01,0-0.02,0-0.03l0.38,0.04
					c1.41-5.79,5.32-10.64,10.61-13.14c1.76-0.83,3.66-1.41,5.4-2.29c3.71-1.86,5.56-5.5-0.94-6.51c-2.13-0.33-4.22,0.04-5.83,1.21
					c-3.84,2.77-4.71,5.82-6.66,10.61c-0.39,0.97-1.01,2.28-1.61,3.68c1.15-5.62,3.23-12.23,8.65-15.91
					c5.42-3.68,9.34-4.62,14.66-8.55C247.43,12.43,247.17,8.01,238.84,9.93z"/>
				<g class="st8">
					<path class="st9" d="M220.24,34.6c-1.93,6.02-2.19,9.58-2.13,11.38c0.04,0.23,0.11,0.44,0.14,0.67
						c-0.02-0.08-0.03-0.18-0.05-0.26l0.31,0.03l0.02,0.03c0-0.01,0-0.02,0-0.03l0.38,0.04c1.41-5.79,5.32-10.64,10.61-13.14
						c1.76-0.83,3.66-1.41,5.4-2.29c2.25-1.13,3.79-2.92,3.21-4.37c-1.43-0.28-5.01-0.71-8.43,0.97c-4.41,2.16-7.5,8.96-8.44,10.74
						c-0.94,1.78-2.53,5.42-2.53,5.42s0.36-1.17,1.14-3.77l0,0c1.15-5.62,3.23-12.23,8.65-15.91c5.42-3.68,9.34-4.62,14.66-8.55
						c2.2-1.63,3.16-3.59,2.43-4.84c-2.49,0.4-7.17,1.5-11.59,4.55C227.65,19.69,223.24,25.22,220.24,34.6z"/>
					<path class="st9" d="M221.22,22.01c-1.38,5.35-1.8,11.97-1.8,11.97c0.8-2.82,2.19-6.07,2.5-6.76c0.49-1.65,1.04-3.34,1.73-5.14
						c1.52-3.98,3.12-11.19-0.28-11.45C223.42,12.39,222.48,17.09,221.22,22.01z"/>
					<path class="st9" d="M212.73,17.06c3.17,8.14,4.92,18.2,4.92,18.2l0.48-9.6c0,0.04-0.01,0.07-0.01,0.11
						c-0.11-0.96-0.24-1.91-0.41-2.83c-1.18-6.68-7.93-25.44-12.42-22.6C202.98,2.9,210.74,11.94,212.73,17.06z"/>
					<path class="st9" d="M214.24,32.63c-1.88-3.56-7.13-7.69-12.57-10.04c-4.21-1.81-8.38-2.5-10.07-2.72
						c0,0.01-0.01,0.02-0.02,0.03c-2.05,6.12,15.58,6.82,19.73,11.13c1.68,1.74,2.92,3.83,3.94,5.95l1.23,1.84
						C216.48,38.82,216.11,36.2,214.24,32.63z"/>
					<path class="st9" d="M211.42,35.45c-3.51-2.06-8.45-2.32-10.19-2.34c-0.07,0.21-0.2,0.4-0.18,0.65
						c0.22,2.39,8.41,2.96,11.29,5.11c3.6,2.68,4.2,4.76,5.52,7.65l0.39,0.13c-0.03-0.23-0.11-0.44-0.14-0.67
						C217.42,41.63,215.52,37.85,211.42,35.45z"/>
				</g>
				<path class="st10" d="M206.23,2.39c-2.95,0.76,0.41,10.28,2.65,10.44C211.11,12.99,209.18,1.64,206.23,2.39z"/>
				<path class="st10" d="M243.89,11.05c-0.78-2.94-10.28,0.48-10.42,2.72C233.33,16.01,244.66,14,243.89,11.05z"/>
				<path class="st10" d="M194.24,19.66c0.21,2.77,9.91,3.93,10.33,2.09C205.14,19.31,194.03,16.89,194.24,19.66z"/>
				<path class="st10" d="M202.77,33.05c0.29,1.86,6.92,2.13,7.11,0.86C210.13,32.23,202.48,31.19,202.77,33.05z"/>
				<path class="st10" d="M220.82,18.85c1.89-0.02,3.09-6.55,1.86-6.92C221.05,11.45,218.93,18.87,220.82,18.85z"/>
				<path class="st10" d="M228.68,27.8c0.57,2.4,7.71,0.37,7.42-1.26C235.72,24.47,228.05,25.16,228.68,27.8z"/>
				<path class="st10" d="M209.65,13.86c-1.38,0.59,0.98,4.97,2.08,4.88C212.82,18.65,211.02,13.27,209.65,13.86z"/>
				<path class="st10" d="M232.87,14.82c-0.94-1.17-4.53,2.27-4.14,3.31C229.11,19.16,233.81,15.99,232.87,14.82z"/>
			</g>
			<path class="st11" d="M217.78,45.86c-8.19,0-12.03-3.64-13.45-5.49c0,0,2.26,7.89,13.45,7.89c11.19,0,13.81-7.89,13.81-7.89
				C230.04,42.22,225.97,45.86,217.78,45.86z"/>
		</g>
		<g>
			<g>
				<path class="st6" d="M143.26,40.37c1.42,1.85,5.26,5.49,13.45,5.49c8.19,0,12.26-3.64,13.81-5.49H143.26z"/>
			</g>
			<g>
				<path class="st7" d="M138.38,12.16c7.9,2.59,13.81,16,14.38,17.13c-0.53-1.47-1.12-2.96-1.84-4.55
					c-1.58-3.48-3.39-9.91-0.28-10.48c2.39-0.44,4.43,5.51,4.79,7.73c0.29,1.79,0.53,3.67,0.73,5.56c0.06-0.89,0.13-1.77,0.24-2.63
					c0.81-6.56,6.69-26.04,11.04-21.43c0.51,0.54,0.75,2.18,0.77,2.94c0.19,6.38-3.68,12.29-6.32,18.28
					c-1.57,3.55-2.7,7.27-3.43,11.03c0.61-2.22,1.37-4.4,2.46-6.45c2.84-5.32,7.8-9.86,13.64-10.97c1.84-0.35,5.06-0.51,5.73,1.16
					c2.17,5.38-14.01,7.82-17.63,12.19c-1.46,1.76-2.51,3.8-3.35,5.84c3.96-6.67,13.05-7.74,12.91-4.41
					c-0.09,2.2-7.59,3.56-10.15,5.83c-3.18,2.82-3.64,4.78-4.72,7.55l-0.35,0.16c0.01-0.07,0.02-0.16,0.03-0.24l-0.28,0.06
					l-0.02,0.03c0-0.01,0-0.02,0-0.03l-0.35,0.08c-1.56-5.15-5.39-9.17-10.38-10.91c-1.66-0.58-3.43-0.91-5.07-1.53
					c-3.5-1.32-5.37-4.45,0.56-6.04c1.94-0.52,3.88-0.4,5.42,0.5c3.67,2.14,4.61,4.83,6.62,9.01c0.41,0.84,1.03,1.98,1.66,3.19
					c-1.32-5.02-4.79-11.09-9.27-14.87c-4.48-3.78-7.95-4.94-12.31-8.93C130.17,13.77,131,9.75,138.38,12.16z"/>
				<g class="st8">
					<path class="st9" d="M154.63,35.84c2.05,5.3,2.46,8.53,2.49,10.18c-0.02,0.21-0.08,0.41-0.1,0.63
						c0.01-0.07,0.02-0.16,0.03-0.24l-0.28,0.06l-0.02,0.03c0-0.01,0-0.02,0-0.03l-0.35,0.08c-1.56-5.15-5.39-9.17-10.38-10.91
						c-1.66-0.58-3.43-0.91-5.07-1.53c-2.13-0.8-3.62-2.28-3.16-3.67c1.31-0.4,4.57-1.16,7.8,0.02c4.16,1.52,7.31,7.41,8.26,8.94
						c0.95,1.53,2.58,4.69,2.58,4.69s-0.39-1.03-1.23-3.33c0,0,0,0,0,0c-1.32-5.02-4.79-11.09-9.27-14.87
						c-4.48-3.78-7.95-4.94-12.31-8.93c-1.8-1.66-2.42-3.51-1.59-4.6c2.23,0.56,6.38,1.93,10.02,5.05
						C147.34,21.93,151.43,27.58,154.63,35.84z"/>
					<path class="st9" d="M153.14,24.44c1.52,4.75,2.22,10.75,2.22,10.75c-0.87-2.49-2.3-5.32-2.62-5.92
						c-0.52-1.46-1.12-2.94-1.83-4.52c-1.58-3.48-3.39-9.9-0.28-10.48C150.66,15.88,151.75,20.07,153.14,24.44z"/>
					<path class="st9" d="M160.71,19.05c-2.53,7.76-3.68,17.13-3.68,17.13l-0.89-8.72c0,0.03,0.01,0.07,0.01,0.1
						c0.06-0.89,0.13-1.77,0.24-2.63c0.77-6.22,6.1-24.06,10.37-21.91C169.02,5.11,162.31,14.16,160.71,19.05z"/>
					<path class="st9" d="M160.06,33.43c1.56-3.45,6.2-7.76,11.09-10.46c3.78-2.09,7.59-3.14,9.14-3.52c0,0.01,0.01,0.02,0.02,0.03
						c2.17,5.38-14.01,7.82-17.63,12.19c-1.46,1.76-2.51,3.8-3.35,5.84l-1.04,1.81C158.29,39.31,158.5,36.88,160.06,33.43z"/>
					<path class="st9" d="M162.78,35.71c3.13-2.24,7.66-2.98,9.26-3.18c0.07,0.19,0.21,0.35,0.2,0.58
						c-0.09,2.2-7.59,3.56-10.15,5.83c-3.18,2.82-3.64,4.78-4.72,7.55l-0.35,0.16c0.02-0.22,0.08-0.42,0.1-0.63
						C157.55,41.97,159.12,38.33,162.78,35.71z"/>
				</g>
				<path class="st10" d="M166.01,4.98c2.75,0.39,0.1,9.44-1.95,9.81C162.01,15.16,163.26,4.6,166.01,4.98z"/>
				<path class="st10" d="M133.6,12.79c1.1-2.62,9.36,1.25,9.19,3.29C142.62,18.14,132.5,15.41,133.6,12.79z"/>
				<path class="st10" d="M177.84,19.53c-0.06,2.55-8.93,4.6-9.4,2.97C167.81,20.33,177.9,16.98,177.84,19.53z"/>
				<path class="st10" d="M170.62,32.64c-0.18,1.73-6.27,2.65-6.5,1.51C163.82,32.64,170.8,30.9,170.62,32.64z"/>
				<path class="st10" d="M153.36,21.51c-1.74,0.17-3.15-5.67-2.03-6.13C152.8,14.77,155.1,21.34,153.36,21.51z"/>
				<path class="st10" d="M146.55,30.49c-0.41,2.25-7.08,1.13-6.88-0.39C139.92,28.18,147,28.02,146.55,30.49z"/>
				<path class="st10" d="M163.4,15.81c1.29,0.4-0.67,4.64-1.68,4.67C160.7,20.51,162.11,15.41,163.4,15.81z"/>
				<path class="st10" d="M143.2,17.09c1.01-0.99,3.85,2.42,3.36,3.34C146.07,21.33,142.19,18.08,143.2,17.09z"/>
			</g>
			<path class="st11" d="M156.71,45.86c-8.19,0-12.03-3.64-13.45-5.49c0,0,2.26,7.89,13.45,7.89c11.19,0,13.81-7.89,13.81-7.89
				C168.97,42.22,164.9,45.86,156.71,45.86z"/>
		</g>
	</g>
	<g>
		<g>
			<g>
				<path class="st6" d="M143.26,179.24c1.42,1.85,5.26,5.49,13.45,5.49c8.19,0,12.26-3.64,13.81-5.49H143.26z"/>
			</g>
			<g>
				<path class="st7" d="M177.77,148.8c-7.65,1.76-11.67,6.99-15.2,13.52c-0.65,1.2-1.19,2.51-1.74,3.8
					c0.49-1.66,1.05-3.36,1.74-5.18c1.52-3.98,3.12-11.19-0.28-11.45c-2.61-0.19-4.48,6.53-4.75,9c-0.22,1.99-0.37,4.06-0.48,6.14
					c-0.11-0.96-0.24-1.91-0.41-2.83c-1.24-7.04-8.68-27.54-13.13-21.99c-0.52,0.65-0.69,2.46-0.67,3.29
					c0.15,6.96,4.66,12.94,7.84,19.13c1.89,3.68,3.32,7.58,4.32,11.59c-0.78-2.34-1.72-4.62-3.02-6.72
					c-3.36-5.44-8.98-9.79-15.36-10.29c-2-0.16-5.49,0.06-6.13,1.96c-2.05,6.12,15.58,6.82,19.73,11.13
					c1.68,1.74,2.92,3.83,3.94,5.95c-4.65-6.78-14.53-6.84-14.2-3.23c0.22,2.39,8.4,2.96,11.29,5.11c3.6,2.68,4.2,4.76,5.52,7.65
					l0.39,0.13c-0.01-0.08-0.03-0.18-0.05-0.26l0.31,0.03l0.02,0.03c0-0.01,0-0.02,0-0.03l0.38,0.04
					c1.41-5.79,5.32-10.64,10.61-13.14c1.76-0.83,3.66-1.41,5.4-2.29c3.71-1.86,5.56-5.5-0.94-6.51c-2.13-0.33-4.22,0.04-5.83,1.21
					c-3.84,2.77-4.71,5.82-6.66,10.61c-0.39,0.97-1.01,2.28-1.61,3.68c1.15-5.62,3.23-12.23,8.65-15.91
					c5.42-3.68,9.34-4.62,14.66-8.55C186.37,151.3,186.11,146.88,177.77,148.8z"/>
				<g class="st8">
					<path class="st9" d="M159.17,173.47c-1.93,6.02-2.19,9.58-2.13,11.38c0.04,0.23,0.11,0.44,0.14,0.67
						c-0.01-0.08-0.03-0.18-0.05-0.26l0.31,0.03l0.02,0.03c0-0.01,0-0.02,0-0.03l0.38,0.04c1.41-5.79,5.32-10.64,10.61-13.14
						c1.76-0.83,3.66-1.41,5.4-2.29c2.25-1.13,3.79-2.92,3.21-4.37c-1.43-0.28-5.01-0.71-8.43,0.97c-4.41,2.16-7.5,8.96-8.44,10.74
						c-0.94,1.78-2.53,5.42-2.53,5.42s0.36-1.17,1.14-3.77l0,0c1.15-5.62,3.23-12.23,8.65-15.91c5.42-3.68,9.34-4.62,14.66-8.55
						c2.2-1.63,3.15-3.59,2.43-4.84c-2.49,0.4-7.17,1.5-11.59,4.55C166.58,158.56,162.18,164.09,159.17,173.47z"/>
					<path class="st9" d="M160.15,160.88c-1.38,5.35-1.8,11.97-1.8,11.97c0.8-2.82,2.2-6.07,2.5-6.76c0.49-1.65,1.04-3.34,1.73-5.14
						c1.52-3.98,3.12-11.19-0.28-11.45C162.36,151.26,161.42,155.96,160.15,160.88z"/>
					<path class="st9" d="M151.67,155.93c3.17,8.14,4.92,18.2,4.92,18.2l0.48-9.6c0,0.04-0.01,0.07-0.01,0.11
						c-0.11-0.96-0.24-1.91-0.41-2.83c-1.18-6.68-7.93-25.44-12.42-22.6C141.91,141.77,149.68,150.81,151.67,155.93z"/>
					<path class="st9" d="M153.17,171.5c-1.88-3.56-7.13-7.69-12.57-10.04c-4.21-1.81-8.38-2.5-10.07-2.72
						c0,0.01-0.01,0.02-0.02,0.03c-2.05,6.12,15.58,6.82,19.73,11.13c1.68,1.74,2.92,3.83,3.94,5.95l1.23,1.84
						C155.41,177.69,155.05,175.07,153.17,171.5z"/>
					<path class="st9" d="M150.36,174.32c-3.51-2.06-8.45-2.32-10.19-2.34c-0.07,0.21-0.2,0.4-0.18,0.65
						c0.22,2.39,8.4,2.96,11.29,5.11c3.6,2.68,4.2,4.76,5.52,7.65l0.39,0.13c-0.03-0.23-0.11-0.44-0.14-0.67
						C156.36,180.5,154.46,176.72,150.36,174.32z"/>
				</g>
				<path class="st10" d="M145.16,141.26c-2.95,0.76,0.41,10.28,2.65,10.44C150.05,151.86,148.11,140.51,145.16,141.26z"/>
				<path class="st10" d="M182.82,149.92c-0.78-2.94-10.28,0.48-10.42,2.72C172.26,154.88,183.6,152.87,182.82,149.92z"/>
				<path class="st10" d="M133.18,158.53c0.21,2.77,9.91,3.93,10.33,2.09C144.07,158.18,132.97,155.76,133.18,158.53z"/>
				<path class="st10" d="M141.71,171.92c0.29,1.86,6.92,2.13,7.11,0.86C149.07,171.1,141.42,170.06,141.71,171.92z"/>
				<path class="st10" d="M159.75,157.72c1.89-0.02,3.09-6.55,1.86-6.92C159.98,150.32,157.87,157.74,159.75,157.72z"/>
				<path class="st10" d="M167.61,166.67c0.57,2.4,7.71,0.37,7.42-1.26C174.65,163.34,166.99,164.03,167.61,166.67z"/>
				<path class="st10" d="M148.58,152.74c-1.38,0.59,0.98,4.97,2.08,4.88C151.76,157.52,149.96,152.14,148.58,152.74z"/>
				<path class="st10" d="M171.81,153.69c-0.94-1.17-4.53,2.27-4.14,3.31C168.05,158.03,172.74,154.86,171.81,153.69z"/>
			</g>
			<path class="st11" d="M156.71,184.73c-8.19,0-12.03-3.64-13.45-5.49c0,0,2.26,7.89,13.45,7.89c11.19,0,13.81-7.89,13.81-7.89
				C168.98,181.09,164.9,184.73,156.71,184.73z"/>
		</g>
		<g>
			<g>
				<path class="st6" d="M82.19,179.24c1.42,1.85,5.26,5.49,13.45,5.49c8.19,0,12.26-3.64,13.81-5.49H82.19z"/>
			</g>
			<g>
				<path class="st7" d="M77.32,151.03c7.9,2.59,13.81,16,14.38,17.13c-0.53-1.47-1.12-2.96-1.85-4.55
					c-1.58-3.48-3.39-9.91-0.27-10.48c2.39-0.45,4.43,5.51,4.79,7.73c0.29,1.79,0.53,3.67,0.73,5.56c0.06-0.89,0.13-1.77,0.24-2.63
					c0.81-6.56,6.69-26.04,11.04-21.43c0.51,0.54,0.75,2.18,0.77,2.94c0.19,6.38-3.68,12.29-6.32,18.28
					c-1.57,3.55-2.7,7.27-3.43,11.03c0.61-2.22,1.37-4.4,2.46-6.45c2.84-5.32,7.8-9.86,13.64-10.97c1.84-0.35,5.06-0.51,5.73,1.16
					c2.17,5.38-14.01,7.82-17.63,12.19c-1.46,1.76-2.51,3.8-3.35,5.84c3.96-6.67,13.05-7.74,12.91-4.41
					c-0.09,2.2-7.59,3.56-10.15,5.83c-3.18,2.82-3.64,4.78-4.72,7.55l-0.35,0.16c0.01-0.07,0.02-0.16,0.03-0.24l-0.28,0.06
					l-0.02,0.03c0-0.01,0-0.02,0-0.03l-0.35,0.08c-1.57-5.15-5.39-9.17-10.38-10.91c-1.66-0.58-3.43-0.91-5.07-1.53
					c-3.5-1.32-5.37-4.45,0.56-6.04c1.94-0.52,3.88-0.4,5.42,0.5c3.67,2.14,4.61,4.83,6.62,9.01c0.41,0.84,1.03,1.98,1.66,3.19
					c-1.32-5.02-4.79-11.09-9.27-14.87c-4.48-3.78-7.95-4.94-12.31-8.93C69.1,152.64,69.93,148.62,77.32,151.03z"/>
				<g class="st8">
					<path class="st9" d="M93.57,174.71c2.05,5.3,2.46,8.53,2.49,10.18c-0.02,0.21-0.08,0.41-0.1,0.63
						c0.01-0.07,0.02-0.16,0.03-0.24l-0.28,0.06l-0.02,0.03c0-0.01,0-0.02,0-0.03l-0.35,0.08c-1.57-5.15-5.39-9.17-10.38-10.91
						c-1.66-0.58-3.43-0.91-5.07-1.53c-2.13-0.8-3.63-2.28-3.16-3.67c1.31-0.4,4.57-1.16,7.8,0.02c4.16,1.52,7.31,7.41,8.26,8.94
						c0.95,1.53,2.58,4.69,2.58,4.69s-0.39-1.03-1.23-3.33c-1.32-5.02-4.79-11.09-9.27-14.87c-4.48-3.78-7.95-4.94-12.31-8.93
						c-1.8-1.66-2.42-3.51-1.59-4.6c2.23,0.56,6.38,1.93,10.02,5.05C86.28,160.8,90.37,166.45,93.57,174.71z"/>
					<path class="st9" d="M92.08,163.31c1.52,4.75,2.22,10.75,2.22,10.75c-0.87-2.49-2.3-5.32-2.62-5.92
						c-0.52-1.46-1.12-2.94-1.83-4.52c-1.58-3.48-3.39-9.9-0.28-10.48C89.6,154.75,90.68,158.94,92.08,163.31z"/>
					<path class="st9" d="M99.65,157.92c-2.53,7.76-3.68,17.13-3.68,17.13l-0.89-8.72c0,0.03,0.01,0.07,0.01,0.1
						c0.06-0.89,0.13-1.77,0.24-2.63c0.77-6.22,6.1-24.06,10.37-21.91C107.96,143.98,101.24,153.03,99.65,157.92z"/>
					<path class="st9" d="M99,172.3c1.56-3.45,6.2-7.76,11.09-10.46c3.78-2.09,7.59-3.14,9.14-3.52c0,0.01,0.01,0.02,0.02,0.03
						c2.17,5.38-14.01,7.82-17.63,12.19c-1.46,1.76-2.51,3.8-3.35,5.84l-1.04,1.81C97.23,178.18,97.44,175.75,99,172.3z"/>
					<path class="st9" d="M101.72,174.58c3.13-2.24,7.66-2.98,9.26-3.18c0.07,0.19,0.21,0.35,0.2,0.58
						c-0.09,2.2-7.59,3.56-10.15,5.83c-3.18,2.82-3.64,4.78-4.72,7.55l-0.35,0.16c0.02-0.22,0.08-0.42,0.1-0.63
						C96.49,180.84,98.06,177.2,101.72,174.58z"/>
				</g>
				<path class="st10" d="M104.94,143.85c2.75,0.39,0.1,9.44-1.95,9.81C100.95,154.03,102.2,143.47,104.94,143.85z"/>
				<path class="st10" d="M72.53,151.66c1.1-2.62,9.36,1.25,9.19,3.29C81.56,157.01,71.43,154.28,72.53,151.66z"/>
				<path class="st10" d="M116.78,158.4c-0.06,2.55-8.93,4.6-9.4,2.97C106.74,159.2,116.84,155.85,116.78,158.4z"/>
				<path class="st10" d="M109.56,171.51c-0.18,1.73-6.27,2.65-6.5,1.51C102.75,171.51,109.74,169.77,109.56,171.51z"/>
				<path class="st10" d="M92.3,160.38c-1.74,0.17-3.15-5.67-2.03-6.13C91.74,153.64,94.03,160.21,92.3,160.38z"/>
				<path class="st10" d="M85.49,169.36c-0.41,2.25-7.08,1.13-6.88-0.39C78.86,167.05,85.94,166.89,85.49,169.36z"/>
				<path class="st10" d="M102.34,154.68c1.29,0.4-0.67,4.64-1.68,4.67C99.64,159.38,101.04,154.28,102.34,154.68z"/>
				<path class="st10" d="M82.14,155.96c1.01-0.99,3.85,2.42,3.36,3.34C85.01,160.2,81.12,156.95,82.14,155.96z"/>
			</g>
			<path class="st11" d="M95.64,184.73c-8.19,0-12.03-3.64-13.45-5.49c0,0,2.26,7.89,13.45,7.89c11.19,0,13.81-7.89,13.81-7.89
				C107.9,181.09,103.83,184.73,95.64,184.73z"/>
		</g>
		<g>
			<g>
				<path class="st6" d="M204.36,179.24c1.42,1.85,5.26,5.49,13.45,5.49c8.19,0,12.26-3.64,13.81-5.49H204.36z"/>
			</g>
			<g>
				<path class="st7" d="M199.49,151.03c7.9,2.59,13.81,16,14.38,17.13c-0.53-1.47-1.12-2.96-1.85-4.55
					c-1.58-3.48-3.39-9.91-0.27-10.48c2.39-0.45,4.43,5.51,4.79,7.73c0.29,1.79,0.53,3.67,0.73,5.56c0.06-0.89,0.13-1.77,0.24-2.63
					c0.81-6.56,6.69-26.04,11.04-21.43c0.51,0.54,0.75,2.18,0.77,2.94c0.19,6.38-3.68,12.29-6.32,18.28
					c-1.57,3.55-2.7,7.27-3.43,11.03c0.61-2.22,1.37-4.4,2.46-6.45c2.84-5.32,7.8-9.86,13.64-10.97c1.84-0.35,5.06-0.51,5.73,1.16
					c2.17,5.38-14.01,7.82-17.63,12.19c-1.46,1.76-2.51,3.8-3.35,5.84c3.96-6.67,13.05-7.74,12.91-4.41
					c-0.09,2.2-7.59,3.56-10.15,5.83c-3.18,2.82-3.64,4.78-4.72,7.55l-0.35,0.16c0.01-0.07,0.02-0.16,0.03-0.24l-0.28,0.06
					l-0.02,0.03c0-0.01,0-0.02,0-0.03l-0.35,0.08c-1.56-5.15-5.39-9.17-10.38-10.91c-1.66-0.58-3.43-0.91-5.07-1.53
					c-3.5-1.32-5.37-4.45,0.56-6.04c1.94-0.52,3.88-0.4,5.42,0.5c3.67,2.14,4.61,4.83,6.62,9.01c0.41,0.84,1.03,1.98,1.66,3.19
					c-1.32-5.02-4.79-11.09-9.27-14.87c-4.48-3.78-7.95-4.94-12.31-8.93C191.27,152.64,192.1,148.62,199.49,151.03z"/>
				<g class="st8">
					<path class="st9" d="M215.74,174.71c2.05,5.3,2.46,8.53,2.49,10.18c-0.02,0.21-0.08,0.41-0.1,0.63
						c0.01-0.07,0.02-0.16,0.03-0.24l-0.28,0.06l-0.02,0.03c0-0.01,0-0.02,0-0.03l-0.35,0.08c-1.56-5.15-5.39-9.17-10.38-10.91
						c-1.66-0.58-3.43-0.91-5.07-1.53c-2.13-0.8-3.62-2.28-3.16-3.67c1.31-0.4,4.57-1.16,7.8,0.02c4.16,1.52,7.32,7.41,8.26,8.94
						c0.95,1.53,2.58,4.69,2.58,4.69s-0.39-1.03-1.23-3.33c0,0,0,0,0,0c-1.32-5.02-4.79-11.09-9.27-14.87
						c-4.48-3.78-7.95-4.94-12.31-8.93c-1.8-1.66-2.42-3.51-1.59-4.6c2.23,0.56,6.38,1.93,10.02,5.05
						C208.45,160.8,212.54,166.45,215.74,174.71z"/>
					<path class="st9" d="M214.25,163.31c1.52,4.75,2.22,10.75,2.22,10.75c-0.87-2.49-2.3-5.32-2.62-5.92
						c-0.52-1.46-1.12-2.94-1.83-4.52c-1.58-3.48-3.39-9.9-0.28-10.48C211.77,154.75,212.85,158.94,214.25,163.31z"/>
					<path class="st9" d="M221.82,157.92c-2.53,7.76-3.68,17.13-3.68,17.13l-0.89-8.72c0,0.03,0.01,0.07,0.01,0.1
						c0.06-0.89,0.13-1.77,0.24-2.63c0.77-6.22,6.1-24.06,10.37-21.91C230.13,143.98,223.41,153.03,221.82,157.92z"/>
					<path class="st9" d="M221.17,172.3c1.56-3.45,6.2-7.76,11.09-10.46c3.78-2.09,7.59-3.14,9.14-3.52c0,0.01,0.01,0.02,0.02,0.03
						c2.17,5.38-14.01,7.82-17.63,12.19c-1.46,1.76-2.51,3.8-3.35,5.84l-1.04,1.81C219.4,178.18,219.61,175.75,221.17,172.3z"/>
					<path class="st9" d="M223.89,174.58c3.13-2.24,7.66-2.98,9.26-3.18c0.07,0.19,0.21,0.35,0.2,0.58
						c-0.09,2.2-7.59,3.56-10.15,5.83c-3.18,2.82-3.64,4.78-4.72,7.55l-0.35,0.16c0.02-0.22,0.08-0.42,0.1-0.63
						C218.66,180.84,220.23,177.2,223.89,174.58z"/>
				</g>
				<path class="st10" d="M227.11,143.85c2.75,0.39,0.1,9.44-1.95,9.81C223.12,154.03,224.37,143.47,227.11,143.85z"/>
				<path class="st10" d="M194.7,151.66c1.1-2.62,9.36,1.25,9.19,3.29C203.73,157.01,193.6,154.28,194.7,151.66z"/>
				<path class="st10" d="M238.95,158.4c-0.06,2.55-8.93,4.6-9.4,2.97C228.91,159.2,239.01,155.85,238.95,158.4z"/>
				<path class="st10" d="M231.73,171.51c-0.18,1.73-6.27,2.65-6.5,1.51C224.92,171.51,231.91,169.77,231.73,171.51z"/>
				<path class="st10" d="M214.47,160.38c-1.74,0.17-3.15-5.67-2.03-6.13C213.91,153.64,216.2,160.21,214.47,160.38z"/>
				<path class="st10" d="M207.66,169.36c-0.41,2.25-7.08,1.13-6.88-0.39C201.03,167.05,208.11,166.89,207.66,169.36z"/>
				<path class="st10" d="M224.51,154.68c1.29,0.4-0.67,4.64-1.68,4.67C221.81,159.38,223.21,154.28,224.51,154.68z"/>
				<path class="st10" d="M204.31,155.96c1.01-0.99,3.85,2.42,3.36,3.34C207.18,160.2,203.29,156.95,204.31,155.96z"/>
			</g>
			<path class="st11" d="M217.81,184.73c-8.19,0-12.03-3.64-13.45-5.49c0,0,2.26,7.89,13.45,7.89c11.19,0,13.81-7.89,13.81-7.89
				C230.08,181.09,226,184.73,217.81,184.73z"/>
		</g>
	</g>
	<g>
		<g>
			<g>
				<path class="st6" d="M143.19,109.74c1.41,1.86,5.23,5.51,13.43,5.55c8.19,0.03,12.28-3.59,13.83-5.43L143.19,109.74z"/>
			</g>
			<g>
				<linearGradient id="SVGID_1_" gradientUnits="userSpaceOnUse" x1="155.7819" y1="93.7157" x2="155.7819" y2="115.9667">
					<stop  offset="0" style="stop-color:#5D8F1B"/>
					<stop  offset="0.1645" style="stop-color:#629220"/>
					<stop  offset="0.369" style="stop-color:#729C2E"/>
					<stop  offset="0.5946" style="stop-color:#8BAD45"/>
					<stop  offset="0.8338" style="stop-color:#AEC464"/>
					<stop  offset="0.9961" style="stop-color:#CAD67E"/>
				</linearGradient>
				<path class="st12" d="M157.53,115.97c0.32-7.33-0.52-15.42-3.17-22.3c-0.09-0.24-0.44-0.15-0.39,0.11
					c1.63,7.45,2.99,14.53,3.24,22.19C157.22,116.17,157.52,116.17,157.53,115.97z"/>
				
					<linearGradient id="SVGID_00000013883299581181243900000002907494950927772035_" gradientUnits="userSpaceOnUse" x1="153.1462" y1="104.5984" x2="153.1462" y2="116.3947">
					<stop  offset="0" style="stop-color:#5D8F1B"/>
					<stop  offset="0.1645" style="stop-color:#629220"/>
					<stop  offset="0.369" style="stop-color:#729C2E"/>
					<stop  offset="0.5946" style="stop-color:#8BAD45"/>
					<stop  offset="0.8338" style="stop-color:#AEC464"/>
					<stop  offset="0.9961" style="stop-color:#CAD67E"/>
				</linearGradient>
				<path style="fill:url(#SVGID_00000013883299581181243900000002907494950927772035_);" d="M149.93,104.72
					c2.75,3.55,4.64,7.44,5.88,11.74c0.11,0.37,0.67,0.22,0.58-0.16c-1.09-4.41-3.26-8.4-6.24-11.8
					C150.01,104.35,149.81,104.57,149.93,104.72z"/>
				
					<linearGradient id="SVGID_00000075841163423432467520000011345008784962292877_" gradientUnits="userSpaceOnUse" x1="160.7762" y1="106.5597" x2="160.7762" y2="115.62">
					<stop  offset="0" style="stop-color:#5D8F1B"/>
					<stop  offset="0.1645" style="stop-color:#629220"/>
					<stop  offset="0.369" style="stop-color:#729C2E"/>
					<stop  offset="0.5946" style="stop-color:#8BAD45"/>
					<stop  offset="0.8338" style="stop-color:#AEC464"/>
					<stop  offset="0.9961" style="stop-color:#CAD67E"/>
				</linearGradient>
				<path style="fill:url(#SVGID_00000075841163423432467520000011345008784962292877_);" d="M158.4,115.67
					c0.65-3.57,2.35-6.49,5.06-8.89c0.28-0.25-0.13-0.65-0.41-0.41c-2.83,2.35-4.56,5.62-5.04,9.24
					C157.97,115.84,158.36,115.9,158.4,115.67z"/>
				<path class="st7" d="M162.43,101.58c2.61-3.07,7.05-3.65,8.34-2.82c2.21,1.42-0.74,6.11-3.38,8.22
					c-1.6,1.28-4.28,2.14-6.29,1.77C161.1,108.75,159.58,104.94,162.43,101.58z"/>
				<path class="st7" d="M156.35,102.6c-2.87-1.61-4.97-4.53-5.57-7.76c-0.3-1.6-0.08-8.37,1.17-9.22c0.64-0.44,1.51-0.02,2.13,0.45
					C159.52,90.24,159.88,99.06,156.35,102.6z"/>
				<path class="st7" d="M147.24,108.32c-2.52-2.13-4.07-9.16-3.37-10.01c0.56-0.68,5.35,0.02,8.1,3.64
					c1.71,2.25,2.38,5.26,1.79,8.02C152,110.32,148.8,109.65,147.24,108.32z"/>
				<g class="st8">
					<path class="st9" d="M151.95,85.62c-1.25,0.85-1.47,7.62-1.17,9.22c0.58,3.1,2.53,5.9,5.22,7.55l0.24,0
						c0,0-1.75-11.28-3.97-16.91C152.15,85.51,152.05,85.56,151.95,85.62z"/>
				</g>
				<g class="st8">
					<path class="st9" d="M170.95,98.9c-5.72,2.83-9.14,8.52-9.87,9.82c0.01,0.02,0.01,0.03,0.01,0.03
						c2.01,0.37,4.69-0.49,6.29-1.77C169.95,104.94,172.8,100.46,170.95,98.9z"/>
				</g>
				<g class="st8">
					<path class="st9" d="M153.74,109.98c-0.72-1.22-5.18-8.57-9.92-11.59c-0.58,1.12,0.96,7.86,3.42,9.93
						C148.8,109.64,151.97,110.32,153.74,109.98z"/>
				</g>
				<path class="st15" d="M162.11,106.61c0.2-1.56,0.55-2.94,1.29-4.33c0.06-0.11-0.11-0.22-0.17-0.1c-0.75,1.4-1.22,2.84-1.3,4.44
					C161.92,106.73,162.09,106.73,162.11,106.61z"/>
				<path class="st15" d="M164.45,103.2c0.5-1.48,1.08-2.57,2.03-3.79c0.07-0.09-0.04-0.21-0.12-0.12c-1.06,1.09-1.74,2.4-2.02,3.89
					C164.33,103.24,164.43,103.27,164.45,103.2z"/>
				<path class="st15" d="M166.79,100.96c0.55-0.67,1.17-1.19,1.92-1.63c0.09-0.05,0.01-0.19-0.08-0.14
					c-0.84,0.44-1.38,0.94-1.94,1.69C166.64,100.94,166.74,101.01,166.79,100.96z"/>
				<path class="st15" d="M162.99,107.39c1.71-0.01,3.14-0.79,4.54-1.71c0.12-0.08,0.01-0.27-0.12-0.2
					c-1.44,0.82-2.73,1.53-4.42,1.75C162.89,107.24,162.88,107.39,162.99,107.39z"/>
				<path class="st15" d="M165.51,104.57c1.49-0.49,2.86-1.12,4.2-1.96c0.14-0.09,0.01-0.3-0.13-0.22c-1.34,0.76-2.68,1.43-4.12,2
					C165.36,104.44,165.4,104.6,165.51,104.57z"/>
				<path class="st15" d="M168.57,101.72c0.71-0.36,1.28-0.7,1.89-1.2c0.07-0.06-0.02-0.17-0.09-0.12c-0.63,0.39-1.23,0.81-1.86,1.2
					C168.42,101.65,168.49,101.76,168.57,101.72z"/>
				<path class="st15" d="M156.71,100.8c0.79-2.09,1.06-4.27,0.82-6.49c-0.01-0.14-0.23-0.15-0.22,0c0.1,2.23-0.15,4.3-0.77,6.44
					C156.51,100.86,156.67,100.9,156.71,100.8z"/>
				<path class="st15" d="M155.99,96.19c0.46-2.16,0.58-4.34,0.3-6.53c-0.02-0.15-0.26-0.16-0.25,0c0.12,2.2,0.07,4.32-0.19,6.51
					C155.84,96.25,155.97,96.27,155.99,96.19z"/>
				<path class="st15" d="M155.2,92.52c0.07-1.53-0.08-2.93-0.72-4.33c-0.04-0.08-0.17-0.02-0.14,0.06
					c0.37,1.43,0.66,2.78,0.68,4.27C155.01,92.64,155.19,92.64,155.2,92.52z"/>
				<path class="st15" d="M155.5,100.58c-1.24-1.54-2.27-3.12-3.37-4.74c-0.06-0.08-0.21-0.03-0.17,0.07
					c0.74,1.79,2.04,3.45,3.46,4.75C155.47,100.72,155.54,100.64,155.5,100.58z"/>
				<path class="st15" d="M154.23,96.03c-1-1.27-1.79-2.54-2.53-3.96c-0.05-0.09-0.2-0.03-0.17,0.07c0.56,1.52,1.45,2.86,2.6,3.99
					C154.19,96.2,154.28,96.1,154.23,96.03z"/>
				<path class="st15" d="M153.28,91.45c-0.36-0.72-0.59-1.4-0.84-2.15c-0.04-0.11-0.19-0.06-0.17,0.05
					c0.16,0.83,0.44,1.47,0.87,2.19C153.19,91.63,153.33,91.55,153.28,91.45z"/>
				<path class="st15" d="M153.02,107.8c-0.18-1.75-0.65-3.49-1.32-5.11c-0.05-0.13-0.26-0.08-0.22,0.06
					c0.52,1.68,0.98,3.36,1.45,5.06C152.95,107.86,153.03,107.85,153.02,107.8z"/>
				<path class="st15" d="M150.88,104.29c-0.37-1.51-0.88-2.93-1.73-4.24c-0.07-0.11-0.22-0.01-0.17,0.1
					c0.61,1.39,1.24,2.75,1.74,4.19C150.76,104.44,150.9,104.4,150.88,104.29z"/>
				<path class="st15" d="M148.21,100.93c-0.41-0.74-0.82-1.24-1.5-1.72c-0.09-0.06-0.21,0.08-0.12,0.16
					c0.61,0.52,1.03,0.95,1.48,1.65C148.12,101.1,148.26,101.02,148.21,100.93z"/>
				<path class="st15" d="M151.62,108.2c-1.01-0.18-2-0.34-3.02-0.38c-0.11,0-0.13,0.16-0.03,0.19c1.01,0.26,1.99,0.33,3.03,0.33
					C151.68,108.34,151.7,108.21,151.62,108.2z"/>
				<path class="st15" d="M150.36,106.38c-1.4-0.33-2.63-0.83-3.86-1.56c-0.14-0.08-0.24,0.12-0.12,0.21
					c1.19,0.9,2.49,1.39,3.96,1.53C150.43,106.57,150.45,106.41,150.36,106.38z"/>
				<path class="st15" d="M147.95,103.71c-1.01-0.65-1.86-1.42-2.69-2.28c-0.08-0.08-0.23,0.03-0.16,0.12
					c0.76,1.04,1.62,1.72,2.76,2.31C147.96,103.91,148.04,103.77,147.95,103.71z"/>
			</g>
			<path class="st11" d="M156.62,115.28c-8.19-0.03-12.01-3.69-13.43-5.55c0,0,2.22,7.9,13.42,7.95
				c11.19,0.05,13.84-7.83,13.84-7.83C168.9,111.7,164.81,115.32,156.62,115.28z"/>
		</g>
		<g>
			<g>
				<path class="st6" d="M82.13,109.67c1.41,1.86,5.23,5.51,13.43,5.55c8.19,0.03,12.28-3.59,13.83-5.43L82.13,109.67z"/>
			</g>
			<g>
				
					<linearGradient id="SVGID_00000110433876485893851310000011446153574608281773_" gradientUnits="userSpaceOnUse" x1="92.4819" y1="99.6833" x2="92.4819" y2="115.7575">
					<stop  offset="0" style="stop-color:#5D8F1B"/>
					<stop  offset="0.1645" style="stop-color:#629220"/>
					<stop  offset="0.369" style="stop-color:#729C2E"/>
					<stop  offset="0.5946" style="stop-color:#8BAD45"/>
					<stop  offset="0.8338" style="stop-color:#AEC464"/>
					<stop  offset="0.9961" style="stop-color:#CAD67E"/>
				</linearGradient>
				<path style="fill:url(#SVGID_00000110433876485893851310000011446153574608281773_);" d="M89.07,99.78
					c3.41,4.77,5.5,10.17,6.28,15.98c0.05,0.36,0.61,0.36,0.57,0c-0.73-5.98-2.94-11.33-6.58-16.14
					C89.22,99.46,88.95,99.61,89.07,99.78z"/>
				
					<linearGradient id="SVGID_00000135676759237916244110000015771329239620607918_" gradientUnits="userSpaceOnUse" x1="99.2944" y1="102.7116" x2="99.2944" y2="115.7705">
					<stop  offset="0" style="stop-color:#5D8F1B"/>
					<stop  offset="0.1645" style="stop-color:#629220"/>
					<stop  offset="0.369" style="stop-color:#729C2E"/>
					<stop  offset="0.5946" style="stop-color:#8BAD45"/>
					<stop  offset="0.8338" style="stop-color:#AEC464"/>
					<stop  offset="0.9961" style="stop-color:#CAD67E"/>
				</linearGradient>
				<path style="fill:url(#SVGID_00000135676759237916244110000015771329239620607918_);" d="M96.55,115.81
					c0.8-5.01,2.49-8.99,5.74-12.91c0.2-0.24-0.12-0.57-0.34-0.34c-3.38,3.43-5.6,8.38-5.72,13.21
					C96.23,115.95,96.52,116,96.55,115.81z"/>
				<path class="st7" d="M83.76,99.36c-1.28-3.38-2.35-10.46-0.52-11.37c1.83-0.91,5.07,1.28,6.82,3.18
					c3.1,3.36,5.73,11.14,2.33,14.22C88.76,105.55,85.57,104.11,83.76,99.36z"/>
				<path class="st7" d="M98.38,108.24c-1.08-2.71-1.36-5.9,0.32-8.28c2.65-3.75,8.21-4.39,9.36-2.84c1.18,1.59-0.95,7.13-4.04,9.39
					C102.15,107.88,98.38,108.24,98.38,108.24z"/>
				<g class="st8">
					<path class="st9" d="M108.07,97.12c-0.07-0.09-0.15-0.18-0.25-0.25c-6.83,3.3-9.43,11.38-9.43,11.38s3.78-0.36,5.65-1.74
						C107.11,104.25,109.25,98.71,108.07,97.12z"/>
				</g>
				<g class="st8">
					<path class="st9" d="M82.92,88.24c-1.37,1.55-0.36,7.96,0.84,11.12c1.8,4.75,5,6.19,8.62,6.03c0.1-0.09,0.19-0.18,0.27-0.27
						C91.9,103.15,87.58,92.33,82.92,88.24z"/>
				</g>
				<path class="st15" d="M98.94,105.9c0.37-2.1-0.06-4.11,0.97-6.09c0.06-0.11-0.09-0.19-0.16-0.1c-1.3,1.74-0.91,4.13-0.95,6.17
					C98.8,105.96,98.93,105.98,98.94,105.9z"/>
				<path class="st15" d="M100.84,101.99c0.65-1.89,1.66-3.23,3.29-4.4c0.14-0.1,0.02-0.33-0.14-0.23
					c-1.71,1.03-2.86,2.64-3.31,4.59C100.66,102.04,100.8,102.08,100.84,101.99z"/>
				<path class="st15" d="M100.62,106.25c1.48-0.21,2.84-0.82,3.87-1.92c0.08-0.09-0.03-0.25-0.14-0.18
					c-1.21,0.84-2.36,1.49-3.79,1.91C100.44,106.1,100.5,106.27,100.62,106.25z"/>
				<path class="st15" d="M103.02,102.78c1.53-0.79,2.89-1.86,3.72-3.39c0.05-0.09-0.08-0.2-0.14-0.11
					c-1.12,1.36-2.11,2.45-3.66,3.37C102.86,102.7,102.94,102.82,103.02,102.78z"/>
				<path class="st15" d="M92.33,102.5c0.6-2.52,0.2-5.43-0.85-7.78c-0.05-0.12-0.24-0.03-0.2,0.09c0.79,2.61,1.01,4.97,0.96,7.68
					C92.24,102.54,92.32,102.55,92.33,102.5z"/>
				<path class="st15" d="M90.04,96.96c-0.14-2.76-1.45-5.63-3.7-7.29c-0.12-0.09-0.25,0.1-0.16,0.2c1.94,2.19,3.15,4.2,3.69,7.12
					C89.89,97.08,90.04,97.05,90.04,96.96z"/>
				<path class="st15" d="M90.98,103.94c-1.71-0.72-3.14-1.68-4.64-2.77c-0.14-0.1-0.28,0.11-0.17,0.23
					c1.29,1.35,2.96,2.2,4.74,2.72C91.01,104.15,91.09,103.98,90.98,103.94z"/>
				<path class="st15" d="M89.16,99.62c-2.01-1.09-3.34-2.41-4.74-4.19c-0.1-0.13-0.27,0.04-0.22,0.17c0.88,2,2.83,3.53,4.88,4.19
					C89.19,99.83,89.25,99.67,89.16,99.62z"/>
				<path class="st15" d="M86.01,94.3c-0.45-0.98-0.92-1.93-1.53-2.82c-0.05-0.08-0.2-0.03-0.16,0.07c0.41,1.01,0.95,1.92,1.53,2.84
					C85.92,94.5,86.06,94.41,86.01,94.3z"/>
			</g>
			<path class="st11" d="M95.55,115.21c-8.19-0.03-12.01-3.69-13.43-5.55c0,0,2.22,7.9,13.42,7.95c11.19,0.05,13.84-7.83,13.84-7.83
				C107.83,111.62,103.74,115.25,95.55,115.21z"/>
		</g>
		<g>
			<g>
				<path class="st6" d="M204.29,109.76c1.41,1.86,5.23,5.51,13.43,5.55c8.19,0.03,12.28-3.59,13.83-5.43L204.29,109.76z"/>
			</g>
			<g>
				
					<linearGradient id="SVGID_00000076587703152187530050000018431631046902072194_" gradientUnits="userSpaceOnUse" x1="214.6404" y1="104.3517" x2="214.6404" y2="115.6521">
					<stop  offset="0" style="stop-color:#5D8F1B"/>
					<stop  offset="0.1645" style="stop-color:#629220"/>
					<stop  offset="0.369" style="stop-color:#729C2E"/>
					<stop  offset="0.5946" style="stop-color:#8BAD45"/>
					<stop  offset="0.8338" style="stop-color:#AEC464"/>
					<stop  offset="0.9961" style="stop-color:#CAD67E"/>
				</linearGradient>
				<path style="fill:url(#SVGID_00000076587703152187530050000018431631046902072194_);" d="M216.67,115.65
					c-0.29-3.73-1.45-8.3-3.65-11.4c-0.13-0.19-0.48-0.08-0.4,0.17c0.62,1.88,1.56,3.63,2.18,5.52c0.62,1.89,1,3.83,1.46,5.76
					C216.32,115.93,216.69,115.88,216.67,115.65z"/>
				
					<linearGradient id="SVGID_00000029763103677773956010000017778451840825171626_" gradientUnits="userSpaceOnUse" x1="221.0943" y1="98.5862" x2="221.0943" y2="116.7368">
					<stop  offset="0" style="stop-color:#5D8F1B"/>
					<stop  offset="0.1645" style="stop-color:#629220"/>
					<stop  offset="0.369" style="stop-color:#729C2E"/>
					<stop  offset="0.5946" style="stop-color:#8BAD45"/>
					<stop  offset="0.8338" style="stop-color:#AEC464"/>
					<stop  offset="0.9961" style="stop-color:#CAD67E"/>
				</linearGradient>
				<path style="fill:url(#SVGID_00000029763103677773956010000017778451840825171626_);" d="M219.32,116.79
					c0.95-6.23,2.33-12.05,3.94-18.13c0.07-0.26-0.34-0.46-0.46-0.19c-2.44,5.61-3.72,12.16-3.87,18.27
					C218.92,116.95,219.28,117.01,219.32,116.79z"/>
				<path class="st7" d="M218.63,99.07c1.08-4.83,5.26-7.88,6.49-7.72c2.27,0.3,2.41,6.84,1.03,10.91c-0.9,2.67-3.3,5.32-5.91,6.35
					C218.03,105.55,217.94,102.19,218.63,99.07z"/>
				<path class="st7" d="M209.2,107.83c-1.93-2.37-3.44-10.45-0.55-11.47c3.37-1.19,9.94,6.92,6.77,14.31
					C215.42,110.67,211.02,110.06,209.2,107.83z"/>
				<g class="st8">
					<path class="st9" d="M209.2,107.83c1.82,2.23,6.22,2.84,6.22,2.84s-2.2-8.07-7.12-14.14
						C205.89,98.08,207.35,105.57,209.2,107.83z"/>
				</g>
				<g class="st8">
					<path class="st9" d="M225.28,91.39c-2.97,5.68-4.69,15.29-5.02,17.22c2.61-1.04,5-3.68,5.9-6.35
						C227.5,98.29,227.4,91.96,225.28,91.39z"/>
				</g>
				<path class="st15" d="M220.37,105.87c-0.57-2.37-0.76-4.63-0.65-7.06c0-0.1-0.17-0.13-0.18-0.02c-0.33,2.39-0.1,4.84,0.66,7.13
					C220.23,106.02,220.39,105.98,220.37,105.87z"/>
				<path class="st15" d="M221.22,101.27c-0.16-2.22,0.03-4.22,0.62-6.37c0.04-0.14-0.16-0.18-0.21-0.06c-0.8,2.04-1,4.3-0.57,6.45
					C221.09,101.37,221.23,101.35,221.22,101.27z"/>
				<path class="st15" d="M221.32,106.33c1.98-1.21,3.6-3.16,4.32-5.37c0.03-0.08-0.1-0.14-0.14-0.06c-1.1,2.16-2.37,3.8-4.27,5.31
					C221.16,106.26,221.25,106.37,221.32,106.33z"/>
				<path class="st15" d="M222.81,101.58c1.43-1.54,2.37-3.51,2.96-5.5c0.04-0.15-0.18-0.21-0.23-0.06
					c-0.72,2.02-1.71,3.69-2.84,5.49C222.67,101.56,222.76,101.63,222.81,101.58z"/>
				<path class="st15" d="M215.07,108.3c0.38-1.98,0.42-4.03,0.05-6.01c-0.02-0.09-0.17-0.07-0.17,0.02
					c0.14,2.02,0.15,3.95-0.04,5.97C214.91,108.37,215.06,108.39,215.07,108.3z"/>
				<path class="st15" d="M213.84,104.42c-0.2-2.21-0.95-4.51-2.19-6.35c-0.06-0.1-0.2-0.01-0.15,0.09
					c0.94,2.09,1.67,4.06,2.21,6.28C213.73,104.52,213.85,104.5,213.84,104.42z"/>
				<path class="st15" d="M214.25,108.88c-1.64-0.91-3-1.91-4.34-3.22c-0.1-0.09-0.23,0.04-0.14,0.14c1.18,1.42,2.7,2.54,4.42,3.22
					C214.27,109.06,214.32,108.92,214.25,108.88z"/>
				<path class="st15" d="M212.73,104.9c-1.68-1.24-2.74-2.62-3.77-4.41c-0.05-0.09-0.22-0.03-0.18,0.08
					c0.69,1.93,2.11,3.45,3.87,4.48C212.74,105.1,212.81,104.97,212.73,104.9z"/>
			</g>
			<path class="st11" d="M217.72,115.3c-8.19-0.03-12.01-3.69-13.43-5.55c0,0,2.22,7.9,13.42,7.95c11.19,0.05,13.84-7.83,13.84-7.83
				C230,111.71,225.91,115.34,217.72,115.3z"/>
		</g>
	</g>
	<g>
		<g>
			<g>
				<path class="st6" d="M81.58,248.61c1.42,1.86,5.24,5.51,13.43,5.55c8.19,0.03,12.28-3.59,13.83-5.43L81.58,248.61z"/>
			</g>
			<g>
				
					<linearGradient id="SVGID_00000128446618026521418920000015708362386534381706_" gradientUnits="userSpaceOnUse" x1="94.1646" y1="232.5886" x2="94.1646" y2="254.8393">
					<stop  offset="0" style="stop-color:#5D8F1B"/>
					<stop  offset="0.1645" style="stop-color:#629220"/>
					<stop  offset="0.369" style="stop-color:#729C2E"/>
					<stop  offset="0.5946" style="stop-color:#8BAD45"/>
					<stop  offset="0.8338" style="stop-color:#AEC464"/>
					<stop  offset="0.9961" style="stop-color:#CAD67E"/>
				</linearGradient>
				<path style="fill:url(#SVGID_00000128446618026521418920000015708362386534381706_);" d="M95.91,254.84
					c0.32-7.33-0.52-15.42-3.17-22.3c-0.09-0.24-0.44-0.15-0.39,0.11c1.63,7.45,2.99,14.53,3.24,22.19
					C95.6,255.05,95.91,255.05,95.91,254.84z"/>
				
					<linearGradient id="SVGID_00000101079067659060544510000015164237817770986168_" gradientUnits="userSpaceOnUse" x1="91.5288" y1="243.4711" x2="91.5288" y2="255.2676">
					<stop  offset="0" style="stop-color:#5D8F1B"/>
					<stop  offset="0.1645" style="stop-color:#629220"/>
					<stop  offset="0.369" style="stop-color:#729C2E"/>
					<stop  offset="0.5946" style="stop-color:#8BAD45"/>
					<stop  offset="0.8338" style="stop-color:#AEC464"/>
					<stop  offset="0.9961" style="stop-color:#CAD67E"/>
				</linearGradient>
				<path style="fill:url(#SVGID_00000101079067659060544510000015164237817770986168_);" d="M88.31,243.6
					c2.75,3.55,4.64,7.44,5.88,11.74c0.11,0.37,0.67,0.21,0.58-0.16c-1.09-4.41-3.26-8.4-6.24-11.8
					C88.4,243.23,88.19,243.44,88.31,243.6z"/>
				
					<linearGradient id="SVGID_00000085957730002606951360000010540958318206611588_" gradientUnits="userSpaceOnUse" x1="99.1588" y1="245.4323" x2="99.1588" y2="254.4927">
					<stop  offset="0" style="stop-color:#5D8F1B"/>
					<stop  offset="0.1645" style="stop-color:#629220"/>
					<stop  offset="0.369" style="stop-color:#729C2E"/>
					<stop  offset="0.5946" style="stop-color:#8BAD45"/>
					<stop  offset="0.8338" style="stop-color:#AEC464"/>
					<stop  offset="0.9961" style="stop-color:#CAD67E"/>
				</linearGradient>
				<path style="fill:url(#SVGID_00000085957730002606951360000010540958318206611588_);" d="M96.78,254.54
					c0.65-3.56,2.35-6.49,5.06-8.89c0.28-0.25-0.13-0.65-0.41-0.41c-2.83,2.35-4.56,5.62-5.04,9.24
					C96.35,254.71,96.74,254.77,96.78,254.54z"/>
				<path class="st7" d="M100.82,240.45c2.61-3.07,7.05-3.65,8.34-2.82c2.21,1.42-0.74,6.11-3.38,8.22
					c-1.6,1.28-4.28,2.14-6.29,1.77C99.48,247.62,97.96,243.81,100.82,240.45z"/>
				<path class="st7" d="M94.73,241.47c-2.87-1.6-4.97-4.53-5.57-7.76c-0.3-1.6-0.08-8.37,1.17-9.22c0.64-0.44,1.51-0.02,2.13,0.45
					C97.9,229.11,98.26,237.93,94.73,241.47z"/>
				<path class="st7" d="M85.62,247.2c-2.51-2.13-4.07-9.16-3.37-10.01c0.56-0.68,5.35,0.02,8.1,3.64c1.71,2.25,2.38,5.26,1.79,8.02
					C90.38,249.2,87.19,248.52,85.62,247.2z"/>
				<g class="st8">
					<path class="st9" d="M90.33,224.5c-1.25,0.85-1.47,7.62-1.17,9.22c0.58,3.1,2.53,5.9,5.22,7.55l0.24,0
						c0,0-1.76-11.28-3.98-16.91C90.54,224.38,90.43,224.43,90.33,224.5z"/>
				</g>
				<g class="st8">
					<path class="st9" d="M109.34,237.77c-5.72,2.83-9.14,8.52-9.87,9.82c0.01,0.02,0.01,0.03,0.01,0.03
						c2.01,0.37,4.69-0.49,6.29-1.77C108.33,243.81,111.19,239.33,109.34,237.77z"/>
				</g>
				<g class="st8">
					<path class="st9" d="M92.12,248.85c-0.72-1.22-5.18-8.57-9.92-11.59c-0.58,1.12,0.96,7.86,3.41,9.93
						C87.18,248.52,90.36,249.19,92.12,248.85z"/>
				</g>
				<path class="st15" d="M100.49,245.49c0.2-1.56,0.55-2.94,1.29-4.33c0.06-0.11-0.11-0.22-0.17-0.1c-0.75,1.4-1.22,2.84-1.3,4.44
					C100.3,245.61,100.47,245.6,100.49,245.49z"/>
				<path class="st15" d="M102.84,242.08c0.5-1.48,1.08-2.57,2.03-3.79c0.07-0.09-0.04-0.21-0.12-0.12
					c-1.06,1.09-1.74,2.4-2.02,3.89C102.72,242.12,102.81,242.15,102.84,242.08z"/>
				<path class="st15" d="M105.17,239.83c0.55-0.67,1.17-1.19,1.92-1.63c0.09-0.05,0.01-0.19-0.08-0.14
					c-0.84,0.44-1.38,0.94-1.94,1.69C105.02,239.81,105.12,239.89,105.17,239.83z"/>
				<path class="st15" d="M101.37,246.27c1.71-0.01,3.14-0.79,4.54-1.71c0.12-0.08,0.01-0.27-0.11-0.2
					c-1.44,0.82-2.73,1.53-4.42,1.75C101.27,246.12,101.26,246.27,101.37,246.27z"/>
				<path class="st15" d="M103.89,243.44c1.49-0.49,2.86-1.12,4.19-1.95c0.14-0.09,0.01-0.3-0.13-0.22c-1.34,0.76-2.68,1.43-4.12,2
					C103.74,243.31,103.78,243.47,103.89,243.44z"/>
				<path class="st15" d="M106.95,240.59c0.71-0.36,1.28-0.7,1.89-1.2c0.07-0.06-0.02-0.17-0.09-0.12c-0.63,0.39-1.23,0.81-1.86,1.2
					C106.81,240.52,106.87,240.63,106.95,240.59z"/>
				<path class="st15" d="M95.09,239.67c0.79-2.09,1.06-4.27,0.82-6.49c-0.01-0.14-0.23-0.15-0.22,0c0.1,2.23-0.15,4.3-0.77,6.44
					C94.9,239.73,95.06,239.77,95.09,239.67z"/>
				<path class="st15" d="M94.37,235.06c0.46-2.16,0.58-4.34,0.3-6.53c-0.02-0.15-0.26-0.16-0.25,0c0.12,2.2,0.07,4.32-0.19,6.51
					C94.22,235.12,94.36,235.14,94.37,235.06z"/>
				<path class="st15" d="M93.58,231.39c0.07-1.53-0.08-2.93-0.72-4.33c-0.04-0.08-0.17-0.02-0.15,0.06
					c0.37,1.43,0.66,2.78,0.68,4.27C93.39,231.51,93.57,231.51,93.58,231.39z"/>
				<path class="st15" d="M93.88,239.46c-1.24-1.54-2.27-3.12-3.37-4.74c-0.06-0.08-0.21-0.03-0.17,0.07
					c0.74,1.79,2.04,3.45,3.46,4.75C93.85,239.59,93.92,239.51,93.88,239.46z"/>
				<path class="st15" d="M92.61,234.91c-0.99-1.27-1.79-2.54-2.53-3.96c-0.05-0.09-0.2-0.03-0.17,0.07
					c0.56,1.52,1.45,2.86,2.6,3.99C92.58,235.07,92.66,234.97,92.61,234.91z"/>
				<path class="st15" d="M91.67,230.32c-0.36-0.72-0.59-1.4-0.84-2.15c-0.04-0.11-0.19-0.06-0.17,0.05
					c0.16,0.83,0.44,1.47,0.87,2.19C91.58,230.5,91.72,230.42,91.67,230.32z"/>
				<path class="st15" d="M91.41,246.67c-0.18-1.75-0.65-3.49-1.32-5.11c-0.05-0.13-0.26-0.08-0.22,0.06
					c0.52,1.68,0.98,3.36,1.46,5.06C91.33,246.73,91.41,246.72,91.41,246.67z"/>
				<path class="st15" d="M89.26,243.17c-0.37-1.51-0.88-2.93-1.73-4.24c-0.07-0.11-0.22-0.01-0.17,0.1
					c0.61,1.39,1.24,2.75,1.74,4.19C89.14,243.31,89.29,243.27,89.26,243.17z"/>
				<path class="st15" d="M86.59,239.8c-0.41-0.74-0.82-1.24-1.5-1.73c-0.09-0.06-0.21,0.08-0.12,0.16
					c0.61,0.52,1.03,0.95,1.48,1.65C86.51,239.97,86.64,239.9,86.59,239.8z"/>
				<path class="st15" d="M90,247.07c-1.01-0.18-2-0.34-3.02-0.38c-0.11,0-0.13,0.16-0.03,0.19c1.01,0.26,1.99,0.33,3.03,0.33
					C90.06,247.21,90.08,247.08,90,247.07z"/>
				<path class="st15" d="M88.74,245.26c-1.4-0.33-2.63-0.83-3.86-1.56c-0.14-0.08-0.24,0.12-0.12,0.21
					c1.19,0.9,2.49,1.39,3.96,1.53C88.82,245.44,88.84,245.28,88.74,245.26z"/>
				<path class="st15" d="M86.33,242.58c-1.01-0.66-1.86-1.42-2.69-2.28c-0.08-0.08-0.23,0.03-0.16,0.12
					c0.76,1.04,1.62,1.72,2.76,2.31C86.34,242.79,86.42,242.64,86.33,242.58z"/>
			</g>
			<path class="st11" d="M95,254.16c-8.19-0.03-12.01-3.69-13.43-5.55c0,0,2.22,7.9,13.42,7.95c11.19,0.05,13.84-7.83,13.84-7.83
				C107.28,250.57,103.19,254.19,95,254.16z"/>
		</g>
		<g>
			<g>
				<path class="st6" d="M204.29,248.54c1.41,1.86,5.23,5.51,13.43,5.55c8.19,0.03,12.28-3.59,13.83-5.43L204.29,248.54z"/>
			</g>
			<g>
				
					<linearGradient id="SVGID_00000134213903163148894250000010752573191077389219_" gradientUnits="userSpaceOnUse" x1="214.6515" y1="238.5561" x2="214.6515" y2="254.6304">
					<stop  offset="0" style="stop-color:#5D8F1B"/>
					<stop  offset="0.1645" style="stop-color:#629220"/>
					<stop  offset="0.369" style="stop-color:#729C2E"/>
					<stop  offset="0.5946" style="stop-color:#8BAD45"/>
					<stop  offset="0.8338" style="stop-color:#AEC464"/>
					<stop  offset="0.9961" style="stop-color:#CAD67E"/>
				</linearGradient>
				<path style="fill:url(#SVGID_00000134213903163148894250000010752573191077389219_);" d="M211.24,238.65
					c3.41,4.77,5.5,10.17,6.28,15.98c0.05,0.36,0.61,0.36,0.57,0c-0.73-5.98-2.94-11.33-6.58-16.14
					C211.39,238.34,211.12,238.48,211.24,238.65z"/>
				
					<linearGradient id="SVGID_00000073713297823214067870000005998453973379111043_" gradientUnits="userSpaceOnUse" x1="221.4635" y1="241.5842" x2="221.4635" y2="254.6432">
					<stop  offset="0" style="stop-color:#5D8F1B"/>
					<stop  offset="0.1645" style="stop-color:#629220"/>
					<stop  offset="0.369" style="stop-color:#729C2E"/>
					<stop  offset="0.5946" style="stop-color:#8BAD45"/>
					<stop  offset="0.8338" style="stop-color:#AEC464"/>
					<stop  offset="0.9961" style="stop-color:#CAD67E"/>
				</linearGradient>
				<path style="fill:url(#SVGID_00000073713297823214067870000005998453973379111043_);" d="M218.72,254.68
					c0.8-5.01,2.48-8.99,5.74-12.91c0.2-0.24-0.12-0.57-0.34-0.34c-3.38,3.43-5.6,8.38-5.72,13.21
					C218.4,254.82,218.69,254.87,218.72,254.68z"/>
				<path class="st7" d="M205.93,238.23c-1.28-3.38-2.35-10.46-0.52-11.37c1.83-0.9,5.07,1.28,6.82,3.18
					c3.1,3.36,5.73,11.14,2.33,14.22C210.93,244.42,207.74,242.98,205.93,238.23z"/>
				<path class="st7" d="M220.55,247.12c-1.08-2.71-1.36-5.9,0.32-8.28c2.65-3.75,8.21-4.39,9.36-2.84
					c1.18,1.59-0.95,7.13-4.04,9.39C224.32,246.75,220.55,247.12,220.55,247.12z"/>
				<g class="st8">
					<path class="st9" d="M230.24,235.99c-0.07-0.09-0.15-0.18-0.25-0.25c-6.83,3.3-9.43,11.38-9.43,11.38s3.78-0.36,5.65-1.74
						C229.28,243.12,231.42,237.58,230.24,235.99z"/>
				</g>
				<g class="st8">
					<path class="st9" d="M205.09,227.11c-1.37,1.55-0.36,7.96,0.84,11.12c1.8,4.75,5,6.19,8.62,6.04c0.1-0.09,0.19-0.18,0.27-0.27
						C214.07,242.02,209.75,231.2,205.09,227.11z"/>
				</g>
				<path class="st15" d="M221.11,244.77c0.37-2.1-0.06-4.11,0.97-6.09c0.06-0.11-0.09-0.19-0.16-0.1c-1.3,1.74-0.91,4.13-0.95,6.17
					C220.97,244.83,221.1,244.85,221.11,244.77z"/>
				<path class="st15" d="M223,240.86c0.65-1.89,1.66-3.23,3.29-4.4c0.14-0.1,0.02-0.33-0.14-0.23c-1.71,1.03-2.86,2.64-3.31,4.59
					C222.83,240.92,222.97,240.96,223,240.86z"/>
				<path class="st15" d="M222.79,245.13c1.48-0.21,2.84-0.82,3.87-1.92c0.08-0.09-0.03-0.25-0.14-0.18
					c-1.21,0.84-2.36,1.49-3.79,1.91C222.61,244.97,222.67,245.14,222.79,245.13z"/>
				<path class="st15" d="M225.19,241.65c1.53-0.79,2.89-1.86,3.72-3.39c0.05-0.09-0.08-0.2-0.15-0.11
					c-1.12,1.36-2.11,2.45-3.65,3.37C225.03,241.57,225.11,241.69,225.19,241.65z"/>
				<path class="st15" d="M214.5,241.37c0.6-2.52,0.2-5.43-0.85-7.78c-0.05-0.12-0.24-0.03-0.2,0.09c0.79,2.61,1.01,4.97,0.96,7.68
					C214.41,241.41,214.49,241.42,214.5,241.37z"/>
				<path class="st15" d="M212.21,235.83c-0.14-2.76-1.45-5.63-3.7-7.29c-0.12-0.09-0.25,0.1-0.16,0.2
					c1.94,2.19,3.15,4.21,3.69,7.12C212.06,235.95,212.21,235.93,212.21,235.83z"/>
				<path class="st15" d="M213.15,242.81c-1.71-0.72-3.14-1.68-4.64-2.77c-0.14-0.1-0.28,0.11-0.17,0.23
					c1.29,1.35,2.96,2.2,4.74,2.72C213.18,243.03,213.25,242.86,213.15,242.81z"/>
				<path class="st15" d="M211.33,238.5c-2.01-1.09-3.34-2.41-4.74-4.19c-0.1-0.13-0.27,0.04-0.22,0.17c0.88,2,2.83,3.53,4.88,4.19
					C211.36,238.7,211.42,238.55,211.33,238.5z"/>
				<path class="st15" d="M208.18,233.18c-0.45-0.98-0.92-1.93-1.53-2.82c-0.05-0.08-0.2-0.03-0.16,0.07
					c0.42,1.01,0.95,1.92,1.53,2.84C208.09,233.37,208.23,233.28,208.18,233.18z"/>
			</g>
			<path class="st11" d="M217.72,254.08c-8.19-0.03-12.01-3.69-13.43-5.55c0,0,2.22,7.9,13.42,7.95
				c11.19,0.05,13.84-7.83,13.84-7.83C230,250.5,225.91,254.12,217.72,254.08z"/>
		</g>
		<g>
			<g>
				<path class="st6" d="M143.74,248.63c1.42,1.86,5.24,5.51,13.43,5.55c8.19,0.03,12.28-3.59,13.83-5.43L143.74,248.63z"/>
			</g>
			<g>
				
					<linearGradient id="SVGID_00000090977881120592628580000017407370012765140097_" gradientUnits="userSpaceOnUse" x1="154.0883" y1="243.2245" x2="154.0883" y2="254.5248">
					<stop  offset="0" style="stop-color:#5D8F1B"/>
					<stop  offset="0.1645" style="stop-color:#629220"/>
					<stop  offset="0.369" style="stop-color:#729C2E"/>
					<stop  offset="0.5946" style="stop-color:#8BAD45"/>
					<stop  offset="0.8338" style="stop-color:#AEC464"/>
					<stop  offset="0.9961" style="stop-color:#CAD67E"/>
				</linearGradient>
				<path style="fill:url(#SVGID_00000090977881120592628580000017407370012765140097_);" d="M156.12,254.52
					c-0.29-3.74-1.45-8.3-3.65-11.4c-0.13-0.19-0.48-0.08-0.4,0.17c0.62,1.88,1.56,3.63,2.18,5.52c0.62,1.89,1,3.83,1.46,5.76
					C155.77,254.8,156.14,254.76,156.12,254.52z"/>
				
					<linearGradient id="SVGID_00000179618533818452741450000010564853708984425140_" gradientUnits="userSpaceOnUse" x1="160.5425" y1="237.4589" x2="160.5425" y2="255.6097">
					<stop  offset="0" style="stop-color:#5D8F1B"/>
					<stop  offset="0.1645" style="stop-color:#629220"/>
					<stop  offset="0.369" style="stop-color:#729C2E"/>
					<stop  offset="0.5946" style="stop-color:#8BAD45"/>
					<stop  offset="0.8338" style="stop-color:#AEC464"/>
					<stop  offset="0.9961" style="stop-color:#CAD67E"/>
				</linearGradient>
				<path style="fill:url(#SVGID_00000179618533818452741450000010564853708984425140_);" d="M158.76,255.66
					c0.95-6.23,2.33-12.05,3.94-18.13c0.07-0.26-0.34-0.46-0.46-0.19c-2.44,5.61-3.72,12.16-3.87,18.27
					C158.37,255.83,158.73,255.89,158.76,255.66z"/>
				<path class="st7" d="M158.08,237.95c1.08-4.83,5.26-7.88,6.49-7.72c2.27,0.3,2.41,6.84,1.03,10.91c-0.9,2.67-3.3,5.32-5.92,6.35
					C157.48,244.42,157.38,241.06,158.08,237.95z"/>
				<path class="st7" d="M148.65,246.7c-1.93-2.37-3.44-10.45-0.55-11.47c3.37-1.19,9.94,6.92,6.77,14.31
					C154.86,249.54,150.47,248.94,148.65,246.7z"/>
				<g class="st8">
					<path class="st9" d="M148.65,246.7c1.82,2.23,6.22,2.84,6.22,2.84s-2.2-8.07-7.12-14.14
						C145.34,236.95,146.8,244.44,148.65,246.7z"/>
				</g>
				<g class="st8">
					<path class="st9" d="M164.73,230.26c-2.97,5.68-4.69,15.29-5.02,17.22c2.61-1.04,5-3.68,5.9-6.35
						C166.95,237.16,166.85,230.83,164.73,230.26z"/>
				</g>
				<path class="st15" d="M159.81,244.74c-0.57-2.37-0.76-4.63-0.65-7.06c0-0.1-0.17-0.13-0.18-0.02c-0.33,2.39-0.1,4.84,0.66,7.13
					C159.68,244.9,159.84,244.85,159.81,244.74z"/>
				<path class="st15" d="M160.67,240.14c-0.16-2.22,0.03-4.22,0.62-6.37c0.04-0.14-0.16-0.18-0.21-0.06c-0.8,2.04-1,4.3-0.57,6.45
					C160.53,240.25,160.68,240.23,160.67,240.14z"/>
				<path class="st15" d="M160.77,245.2c1.98-1.21,3.6-3.16,4.32-5.37c0.03-0.08-0.1-0.14-0.14-0.06c-1.1,2.16-2.37,3.8-4.27,5.31
					C160.6,245.13,160.7,245.25,160.77,245.2z"/>
				<path class="st15" d="M162.26,240.45c1.43-1.54,2.37-3.51,2.96-5.5c0.04-0.15-0.18-0.21-0.23-0.06
					c-0.72,2.02-1.71,3.69-2.84,5.49C162.12,240.43,162.21,240.5,162.26,240.45z"/>
				<path class="st15" d="M154.52,247.18c0.38-1.98,0.42-4.03,0.05-6.01c-0.02-0.09-0.17-0.07-0.16,0.02
					c0.14,2.02,0.15,3.95-0.04,5.97C154.36,247.24,154.5,247.26,154.52,247.18z"/>
				<path class="st15" d="M153.29,243.3c-0.2-2.21-0.95-4.51-2.19-6.35c-0.06-0.09-0.2-0.01-0.15,0.09
					c0.94,2.09,1.67,4.06,2.21,6.28C153.18,243.39,153.3,243.37,153.29,243.3z"/>
				<path class="st15" d="M153.69,247.75c-1.64-0.91-3-1.91-4.34-3.22c-0.09-0.09-0.23,0.04-0.14,0.14c1.18,1.42,2.7,2.54,4.42,3.22
					C153.72,247.93,153.77,247.79,153.69,247.75z"/>
				<path class="st15" d="M152.18,243.78c-1.68-1.24-2.74-2.62-3.77-4.41c-0.05-0.09-0.22-0.03-0.18,0.08
					c0.69,1.93,2.11,3.45,3.87,4.48C152.19,243.97,152.26,243.84,152.18,243.78z"/>
			</g>
			<path class="st11" d="M157.17,254.17c-8.19-0.03-12.01-3.69-13.43-5.55c0,0,2.22,7.9,13.42,7.95
				c11.19,0.05,13.84-7.83,13.84-7.83C169.45,250.59,165.36,254.21,157.17,254.17z"/>
		</g>
	</g>
	<g>
		<rect x="4.5" y="293.59" class="st0" width="109.18" height="66.41"/>
		<g>
			<rect x="6.89" y="293.59" class="st27" width="3.1" height="66.41"/>
			<rect x="17.03" y="293.59" class="st27" width="3.1" height="66.41"/>
			<rect x="27.16" y="293.59" class="st27" width="3.1" height="66.41"/>
			<rect x="37.29" y="293.59" class="st27" width="3.1" height="66.41"/>
			<rect x="47.42" y="293.59" class="st27" width="3.1" height="66.41"/>
			<rect x="57.55" y="293.59" class="st27" width="3.1" height="66.41"/>
			<rect x="67.68" y="293.59" class="st27" width="3.1" height="66.41"/>
			<rect x="77.81" y="293.59" class="st27" width="3.1" height="66.41"/>
			<rect x="87.94" y="293.59" class="st27" width="3.1" height="66.41"/>
			<rect x="98.07" y="293.59" class="st27" width="3.1" height="66.41"/>
			<rect x="108.2" y="293.59" class="st27" width="3.1" height="66.41"/>
		</g>
		<path class="st27" d="M113.69,352.12H4.5c0,0,77.67-5.63,71.66-31.33c-4.44-19-71.66-19.32-71.66-19.32h109.18V352.12z"/>
		<rect x="0" y="293.59" class="st0" width="118.19" height="7.88"/>
		<rect x="0" y="352.12" class="st0" width="118.19" height="7.88"/>
		<rect x="0" y="298.47" class="st0" width="118.19" height="3"/>
		<rect x="0" y="357" class="st0" width="118.19" height="3"/>
		<g class="st28">
			<rect x="9" y="352.12" class="st6" width="10.13" height="7.88"/>
			<rect x="30.77" y="352.12" class="st6" width="10.13" height="7.88"/>
		</g>
		<g class="st28">
			<rect x="76.92" y="352.12" class="st6" width="10.13" height="7.88"/>
			<rect x="98.68" y="352.12" class="st6" width="10.13" height="7.88"/>
		</g>
	</g>
</g>
</svg>
