<?xml version="1.0" encoding="utf-8"?>
<!-- Generator: Adobe Illustrator 26.2.1, SVG Export Plug-In . SVG Version: 6.00 Build 0)  -->
<svg version="1.1" id="Layer_1_copy_5" xmlns="http://www.w3.org/2000/svg" xmlns:xlink="http://www.w3.org/1999/xlink" x="0px"
	 y="0px" viewBox="0 0 873.9 238.25" style="enable-background:new 0 0 873.9 238.25;" xml:space="preserve">
<style type="text/css">
	.st0{fill:#8DC63F;}
</style>
<g>
	<g>
		<path class="st0" d="M190.83,86.1c-6.93-4.83-16.11-6.99-25.02-6.16c-1.36,0.13-2.72,0.33-4.06,0.6
			c-1.41,0.28-2.81,0.65-4.18,1.09c-0.15,0.05-0.31,0.09-0.46,0.14c-10.31,3.48-17.97,11.14-21.71,21.62h56.24v31.47h-41.6
			c6.39,5,11.15,11.71,13.87,19.74c0.6,1.79,1.09,3.61,1.47,5.45c8.84,0.07,17.75-2.52,25.47-7.9l47.42-33.03L190.83,86.1z"/>
		<path class="st0" d="M157.99,163.32c-0.22-1.39-0.51-2.77-0.87-4.12c-0.19-0.7-0.4-1.4-0.64-2.09
			c-3.48-10.31-11.14-17.97-21.62-21.71v56.24h-31.47v-41.6c-5,6.39-11.71,11.15-19.74,13.87c-1.79,0.6-3.61,1.09-5.45,1.47
			c-0.07,8.84,2.52,17.75,7.9,25.46l33.03,47.42l33.03-47.42c4.55-6.53,6.71-15.05,6.26-23.47
			C158.34,166.01,158.21,164.66,157.99,163.32z"/>
		<path class="st0" d="M81.14,156.48c10.31-3.48,17.97-11.14,21.71-21.62H46.62v-31.47h40.06c-6.39-5-11.15-11.71-13.87-19.74
			c-0.6-1.78-1.09-3.6-1.46-5.43c-8.33,0.23-16.66,2.82-23.93,7.88L0,119.13l47.42,33.03c6.53,4.55,15.06,6.71,23.47,6.26
			c1.35-0.07,2.7-0.21,4.04-0.42c1.39-0.22,2.77-0.51,4.12-0.88C79.75,156.93,80.45,156.72,81.14,156.48z"/>
		<path class="st0" d="M78.68,74.69c0.21,1.37,0.49,2.73,0.85,4.07c0.21,0.8,0.44,1.6,0.71,2.38c3.61,10.7,11.72,18.56,22.82,22.13
			l0.34,0.11V46.62h31.47v41.6c5-6.39,11.71-11.15,19.74-13.87c1.28-0.43,2.59-0.79,3.9-1.11c0.14-8.96-2.44-18.01-7.89-25.83
			L117.59,0h0L84.56,47.42c-4.51,6.48-6.68,14.93-6.27,23.28C78.35,72.04,78.48,73.37,78.68,74.69z"/>
	</g>
	<g>
		<g>
			<path d="M301.61,57.47c21.74,0,34.22,10.75,34.22,29.52c0,19.52-12.48,30.88-34.22,30.88h-19.89v26.06h-14.58V57.47H301.61z
				 M281.72,104.78h19.27c13.34,0,20.88-5.68,20.88-17.42c0-11.36-7.54-16.8-20.88-16.8h-19.27V104.78z"/>
			<path d="M350.03,143.93V58.42h14.21v85.51H350.03z"/>
			<path d="M444.55,143.93h-14.21v-12.85c-4.45,9.14-12.72,13.22-23.47,13.34c-15.07,0-24.09-9.64-24.09-25.32V78.22h14.21v36.93
				c0,9.88,5.81,15.93,15.32,15.93c11.36-0.25,18.03-9.02,18.03-20.5V78.22h14.21V143.93z"/>
			<path d="M509.13,84.27l-5.19,10.5c-5.81-3.58-13.09-5.81-18.9-5.81c-5.56,0-9.63,1.85-9.63,6.55c0,12.1,34.96,5.56,34.83,29.4
				c0,13.46-11.98,19.52-25.2,19.52c-9.63,0-19.89-3.21-26.43-9.14l5.06-10.13c5.68,5.06,14.82,8.15,21.99,8.15
				c6.05,0,10.75-2.1,10.75-7.04c0-13.46-34.59-5.93-34.46-29.65c0-13.34,11.61-19.02,24.21-19.02
				C494.43,77.6,503.2,80.07,509.13,84.27z"/>
			<path class="st0" d="M601.03,101.44v31.87c-8.77,6.67-21.74,11.24-33.6,11.24c-25.57,0-45.46-19.15-45.46-43.85
				s20.13-43.6,46.32-43.6c12.35,0,24.7,4.69,33.23,12.1l-8.28,10.75c-6.67-6.18-15.93-9.88-24.95-9.88
				c-17.66,0-31.5,13.46-31.5,30.63c0,17.29,13.96,30.76,31.62,30.76c6.42,0,13.71-2.22,19.89-5.93v-24.09H601.03z"/>
			<path class="st0" d="M631.3,91.31c4.45-8.89,12.35-13.59,22.73-13.59v13.59c-13.22-0.74-21.62,7.04-22.73,18.28v34.34h-14.2
				V78.22h14.2V91.31z"/>
			<path class="st0" d="M724.8,116.51h-49.66c2.22,10.13,10.01,16.43,20.38,16.43c7.16,0,13.71-2.72,18.53-7.66l7.53,8.03
				c-6.42,7.04-15.81,11.12-27.17,11.12c-20.26,0-33.6-13.46-33.6-33.23c0-19.89,13.71-33.35,33.23-33.47
				C717.14,77.72,726.53,92.79,724.8,116.51z M712.45,106.13c-0.49-10.62-7.53-17.04-18.28-17.04c-10.38,0-17.66,6.55-19.27,17.04
				H712.45z"/>
			<path class="st0" d="M797.44,116.51h-49.66c2.22,10.13,10.01,16.43,20.38,16.43c7.16,0,13.71-2.72,18.53-7.66l7.53,8.03
				c-6.42,7.04-15.81,11.12-27.17,11.12c-20.26,0-33.6-13.46-33.6-33.23c0-19.89,13.71-33.35,33.23-33.47
				C789.78,77.72,799.17,92.79,797.44,116.51z M785.08,106.13c-0.49-10.62-7.53-17.04-18.28-17.04c-10.38,0-17.66,6.55-19.27,17.04
				H785.08z"/>
			<path class="st0" d="M873.9,103.05v40.89h-14.2V107c0-9.88-5.93-15.93-15.81-15.93c-10.87,0.12-17.66,7.66-18.65,17.91v34.96
				h-14.2V78.22h14.2v12.6c4.69-9.14,13.09-13.09,24.21-13.09C864.76,77.72,873.9,87.36,873.9,103.05z"/>
		</g>
		<g>
			<path d="M343.62,195.01v-2.98h21.62v2.98H343.62z M350.28,228.21v-41.72c0-3,0.87-5.42,2.6-7.24c1.73-1.83,4.22-2.74,7.45-2.74
				c1.34,0,2.66,0.2,3.95,0.59c1.29,0.39,2.36,0.98,3.19,1.77l-1.39,2.63c-0.69-0.69-1.52-1.2-2.5-1.52s-2.01-0.49-3.12-0.49
				c-2.22,0-3.9,0.61-5.06,1.84c-1.16,1.22-1.73,3.04-1.73,5.44v6.1l0.07,1.66v33.68H350.28z"/>
			<path d="M374.12,228.21v-36.18h3.33v9.91l-0.35-1.11c1.02-2.91,2.73-5.15,5.13-6.72c2.4-1.57,5.41-2.36,9.01-2.36v3.4
				c-0.14,0-0.28-0.01-0.42-0.03s-0.28-0.04-0.42-0.04c-4.02,0-7.16,1.26-9.43,3.78c-2.26,2.52-3.4,6.02-3.4,10.5v18.85H374.12z"/>
			<path d="M416.95,228.49c-3.65,0-6.87-0.79-9.67-2.36c-2.8-1.57-4.99-3.74-6.58-6.51s-2.39-5.94-2.39-9.5
				c0-3.6,0.75-6.78,2.25-9.53c1.5-2.75,3.57-4.91,6.2-6.48c2.63-1.57,5.59-2.36,8.87-2.36c3.28,0,6.23,0.76,8.84,2.29
				c2.61,1.52,4.67,3.66,6.17,6.41c1.5,2.75,2.25,5.93,2.25,9.53c0,0.14-0.01,0.29-0.03,0.45c-0.02,0.16-0.04,0.33-0.04,0.52h-31.95
				v-2.7h30.08l-1.39,1.32c0.04-2.82-0.54-5.35-1.77-7.59c-1.22-2.24-2.88-4-4.96-5.27c-2.08-1.27-4.48-1.91-7.21-1.91
				c-2.68,0-5.07,0.64-7.17,1.91c-2.1,1.27-3.75,3.03-4.96,5.27c-1.2,2.24-1.8,4.79-1.8,7.66v0.62c0,2.96,0.66,5.58,1.98,7.87
				c1.32,2.29,3.13,4.07,5.44,5.34c2.31,1.27,4.94,1.91,7.9,1.91c2.31,0,4.47-0.42,6.48-1.25c2.01-0.83,3.71-2.1,5.09-3.81
				l2.01,2.29c-1.57,1.94-3.55,3.41-5.93,4.4C422.29,227.99,419.72,228.49,416.95,228.49z"/>
			<path d="M454.58,228.49c-3,0-5.81-0.44-8.42-1.32c-2.61-0.88-4.63-1.99-6.06-3.33l1.59-2.77c1.39,1.2,3.23,2.23,5.54,3.08
				c2.31,0.86,4.8,1.28,7.48,1.28c3.79,0,6.51-0.62,8.18-1.87c1.66-1.25,2.5-2.89,2.5-4.92c0-1.48-0.43-2.64-1.28-3.5
				c-0.86-0.85-2-1.51-3.43-1.97c-1.43-0.46-3-0.84-4.71-1.14c-1.71-0.3-3.42-0.63-5.13-1c-1.71-0.37-3.28-0.9-4.71-1.59
				c-1.43-0.69-2.58-1.65-3.43-2.88c-0.86-1.22-1.28-2.85-1.28-4.89c0-1.85,0.51-3.51,1.53-4.99c1.02-1.48,2.54-2.67,4.57-3.57
				c2.03-0.9,4.57-1.35,7.62-1.35c2.26,0,4.54,0.32,6.83,0.97c2.29,0.65,4.15,1.5,5.58,2.56l-1.59,2.77
				c-1.52-1.15-3.23-1.99-5.13-2.5c-1.89-0.51-3.81-0.76-5.75-0.76c-3.51,0-6.09,0.65-7.73,1.94c-1.64,1.29-2.46,2.91-2.46,4.85
				c0,1.52,0.43,2.74,1.28,3.64c0.85,0.9,2,1.59,3.43,2.08c1.43,0.49,3,0.88,4.71,1.18c1.71,0.3,3.42,0.64,5.13,1.01
				c1.71,0.37,3.28,0.89,4.71,1.56c1.43,0.67,2.58,1.59,3.43,2.77c0.85,1.18,1.28,2.76,1.28,4.75c0,1.99-0.54,3.72-1.63,5.2
				c-1.09,1.48-2.69,2.63-4.82,3.46C460.28,228.07,457.67,228.49,454.58,228.49z"/>
			<path d="M498.03,191.76c2.96,0,5.53,0.57,7.73,1.7c2.19,1.13,3.9,2.84,5.13,5.13c1.22,2.29,1.84,5.12,1.84,8.49v21.14h-3.46
				v-20.86c0-4.06-1.03-7.16-3.08-9.29c-2.06-2.12-4.93-3.19-8.63-3.19c-2.82,0-5.27,0.58-7.35,1.73c-2.08,1.16-3.66,2.77-4.75,4.85
				c-1.09,2.08-1.63,4.57-1.63,7.49v19.27h-3.46v-51.42h3.46v25.3l-0.62-1.11c1.11-2.86,2.93-5.12,5.47-6.76
				C491.22,192.58,494.34,191.76,498.03,191.76z"/>
			<path d="M550.15,183.23c-0.79,0-1.46-0.28-2.01-0.83s-0.83-1.2-0.83-1.94c0-0.79,0.28-1.46,0.83-2.01
				c0.55-0.55,1.22-0.83,2.01-0.83c0.83,0,1.51,0.27,2.04,0.8c0.53,0.53,0.8,1.19,0.8,1.98c0,0.79-0.27,1.46-0.8,2.01
				S550.98,183.23,550.15,183.23z M548.42,228.21v-36.18h3.46v36.18H548.42z"/>
			<path d="M577.45,228.49c-3,0-5.81-0.44-8.42-1.32c-2.61-0.88-4.63-1.99-6.06-3.33l1.59-2.77c1.39,1.2,3.23,2.23,5.54,3.08
				c2.31,0.86,4.8,1.28,7.48,1.28c3.79,0,6.51-0.62,8.18-1.87c1.66-1.25,2.5-2.89,2.5-4.92c0-1.48-0.43-2.64-1.28-3.5
				c-0.86-0.85-2-1.51-3.43-1.97c-1.43-0.46-3-0.84-4.71-1.14c-1.71-0.3-3.42-0.63-5.13-1c-1.71-0.37-3.28-0.9-4.71-1.59
				c-1.43-0.69-2.58-1.65-3.43-2.88c-0.86-1.22-1.28-2.85-1.28-4.89c0-1.85,0.51-3.51,1.53-4.99c1.02-1.48,2.54-2.67,4.57-3.57
				c2.03-0.9,4.57-1.35,7.62-1.35c2.26,0,4.54,0.32,6.83,0.97c2.29,0.65,4.15,1.5,5.58,2.56l-1.59,2.77
				c-1.52-1.15-3.23-1.99-5.13-2.5c-1.9-0.51-3.81-0.76-5.75-0.76c-3.51,0-6.09,0.65-7.73,1.94c-1.64,1.29-2.46,2.91-2.46,4.85
				c0,1.52,0.43,2.74,1.28,3.64c0.85,0.9,2,1.59,3.43,2.08c1.43,0.49,3,0.88,4.71,1.18c1.71,0.3,3.42,0.64,5.13,1.01
				c1.71,0.37,3.28,0.89,4.71,1.56c1.43,0.67,2.58,1.59,3.43,2.77c0.85,1.18,1.28,2.76,1.28,4.75c0,1.99-0.54,3.72-1.63,5.2
				c-1.09,1.48-2.69,2.63-4.82,3.46C583.16,228.07,580.55,228.49,577.45,228.49z"/>
			<path d="M640.52,191.76c2.96,0,5.53,0.57,7.73,1.7c2.19,1.13,3.9,2.84,5.13,5.13c1.22,2.29,1.84,5.12,1.84,8.49v21.14h-3.46
				v-20.86c0-4.06-1.03-7.16-3.08-9.29s-4.93-3.19-8.63-3.19c-2.82,0-5.27,0.58-7.35,1.73c-2.08,1.16-3.66,2.77-4.75,4.85
				c-1.09,2.08-1.63,4.57-1.63,7.49v19.27h-3.46v-51.42h3.46v25.3l-0.62-1.11c1.11-2.86,2.93-5.12,5.48-6.76
				C633.7,192.58,636.82,191.76,640.52,191.76z"/>
			<path d="M685.98,228.49c-3.65,0-6.87-0.79-9.67-2.36c-2.8-1.57-4.99-3.74-6.58-6.51s-2.39-5.94-2.39-9.5
				c0-3.6,0.75-6.78,2.25-9.53c1.5-2.75,3.57-4.91,6.2-6.48c2.63-1.57,5.59-2.36,8.87-2.36c3.28,0,6.23,0.76,8.84,2.29
				c2.61,1.52,4.67,3.66,6.17,6.41c1.5,2.75,2.25,5.93,2.25,9.53c0,0.14-0.01,0.29-0.04,0.45s-0.03,0.33-0.03,0.52h-31.95v-2.7
				h30.08l-1.39,1.32c0.05-2.82-0.54-5.35-1.77-7.59c-1.23-2.24-2.88-4-4.96-5.27c-2.08-1.27-4.48-1.91-7.21-1.91
				c-2.68,0-5.07,0.64-7.17,1.91c-2.1,1.27-3.75,3.03-4.96,5.27c-1.2,2.24-1.8,4.79-1.8,7.66v0.62c0,2.96,0.66,5.58,1.98,7.87
				c1.32,2.29,3.13,4.07,5.44,5.34c2.31,1.27,4.94,1.91,7.9,1.91c2.31,0,4.47-0.42,6.48-1.25c2.01-0.83,3.71-2.1,5.09-3.81
				l2.01,2.29c-1.57,1.94-3.55,3.41-5.93,4.4C691.33,227.99,688.76,228.49,685.98,228.49z"/>
			<path d="M714.47,228.21v-36.18h3.33v9.91l-0.35-1.11c1.02-2.91,2.73-5.15,5.13-6.72c2.4-1.57,5.41-2.36,9.01-2.36v3.4
				c-0.14,0-0.28-0.01-0.42-0.03s-0.28-0.04-0.42-0.04c-4.02,0-7.16,1.26-9.42,3.78c-2.26,2.52-3.4,6.02-3.4,10.5v18.85H714.47z"/>
			<path d="M757.3,228.49c-3.65,0-6.87-0.79-9.67-2.36c-2.8-1.57-4.99-3.74-6.58-6.51s-2.39-5.94-2.39-9.5
				c0-3.6,0.75-6.78,2.25-9.53c1.5-2.75,3.57-4.91,6.2-6.48c2.63-1.57,5.59-2.36,8.87-2.36c3.28,0,6.23,0.76,8.84,2.29
				c2.61,1.52,4.67,3.66,6.17,6.41c1.5,2.75,2.25,5.93,2.25,9.53c0,0.14-0.01,0.29-0.04,0.45s-0.03,0.33-0.03,0.52h-31.95v-2.7
				h30.08l-1.39,1.32c0.05-2.82-0.54-5.35-1.77-7.59c-1.23-2.24-2.88-4-4.96-5.27c-2.08-1.27-4.48-1.91-7.21-1.91
				c-2.68,0-5.07,0.64-7.17,1.91c-2.1,1.27-3.75,3.03-4.96,5.27c-1.2,2.24-1.8,4.79-1.8,7.66v0.62c0,2.96,0.66,5.58,1.98,7.87
				c1.32,2.29,3.13,4.07,5.44,5.34c2.31,1.27,4.94,1.91,7.9,1.91c2.31,0,4.47-0.42,6.48-1.25c2.01-0.83,3.71-2.1,5.09-3.81
				l2.01,2.29c-1.57,1.94-3.55,3.41-5.93,4.4C762.65,227.99,760.07,228.49,757.3,228.49z"/>
		</g>
	</g>
</g>
</svg>
