<?xml version="1.0" encoding="utf-8"?>
<!-- Generator: Adobe Illustrator 26.2.1, SVG Export Plug-In . SVG Version: 6.00 Build 0)  -->
<svg version="1.1" id="Layer_1_copy_5" xmlns="http://www.w3.org/2000/svg" xmlns:xlink="http://www.w3.org/1999/xlink" x="0px"
	 y="0px" viewBox="0 0 606.75 171.39" style="enable-background:new 0 0 606.75 171.39;" xml:space="preserve">
<style type="text/css">
	.st0{fill:#8DC63F;}
</style>
<g>
	<g>
		<path d="M34.46,0.37c21.74,0,34.22,10.75,34.22,29.52c0,19.52-12.48,30.88-34.22,30.88H14.58v26.06H0V0.37H34.46z M14.58,47.68
			h19.27c13.34,0,20.88-5.68,20.88-17.42c0-11.36-7.54-16.8-20.88-16.8H14.58V47.68z"/>
		<path d="M82.88,86.84V1.33h14.21v85.51H82.88z"/>
		<path d="M177.4,86.84h-14.21V73.99c-4.45,9.14-12.72,13.22-23.47,13.34c-15.07,0-24.09-9.64-24.09-25.32V21.12h14.21v36.93
			c0,9.88,5.81,15.93,15.32,15.93c11.36-0.25,18.03-9.02,18.03-20.5V21.12h14.21V86.84z"/>
		<path d="M241.98,27.17l-5.19,10.5c-5.81-3.58-13.09-5.81-18.9-5.81c-5.56,0-9.63,1.85-9.63,6.55c0,12.1,34.96,5.56,34.83,29.4
			c0,13.46-11.98,19.52-25.2,19.52c-9.63,0-19.89-3.21-26.43-9.14l5.06-10.13c5.68,5.06,14.82,8.15,21.99,8.15
			c6.05,0,10.75-2.1,10.75-7.04c0-13.46-34.59-5.93-34.46-29.65c0-13.34,11.61-19.02,24.21-19.02
			C227.28,20.5,236.05,22.98,241.98,27.17z"/>
		<path class="st0" d="M333.88,44.34v31.87c-8.77,6.67-21.74,11.24-33.6,11.24c-25.57,0-45.46-19.15-45.46-43.85S274.96,0,301.15,0
			c12.35,0,24.7,4.69,33.23,12.1l-8.28,10.75c-6.67-6.18-15.93-9.88-24.95-9.88c-17.66,0-31.5,13.46-31.5,30.63
			c0,17.29,13.96,30.76,31.62,30.76c6.42,0,13.71-2.22,19.89-5.93V44.34H333.88z"/>
		<path class="st0" d="M364.15,34.22c4.45-8.89,12.35-13.59,22.73-13.59v13.59c-13.22-0.74-21.62,7.04-22.73,18.28v34.34h-14.2
			V21.12h14.2V34.22z"/>
		<path class="st0" d="M457.65,59.41H408c2.22,10.13,10.01,16.43,20.38,16.43c7.16,0,13.71-2.72,18.53-7.66l7.53,8.03
			c-6.42,7.04-15.81,11.12-27.17,11.12c-20.26,0-33.6-13.46-33.6-33.23c0-19.89,13.71-33.35,33.23-33.47
			C449.99,20.63,459.38,35.7,457.65,59.41z M445.3,49.04c-0.49-10.62-7.53-17.04-18.28-17.04c-10.38,0-17.66,6.55-19.27,17.04H445.3
			z"/>
		<path class="st0" d="M530.29,59.41h-49.66c2.22,10.13,10.01,16.43,20.38,16.43c7.16,0,13.71-2.72,18.53-7.66l7.53,8.03
			c-6.42,7.04-15.81,11.12-27.17,11.12c-20.26,0-33.6-13.46-33.6-33.23c0-19.89,13.71-33.35,33.23-33.47
			C522.63,20.63,532.02,35.7,530.29,59.41z M517.93,49.04c-0.49-10.62-7.53-17.04-18.28-17.04c-10.38,0-17.66,6.55-19.27,17.04
			H517.93z"/>
		<path class="st0" d="M606.75,45.95v40.89h-14.2V49.9c0-9.88-5.93-15.93-15.81-15.93c-10.87,0.12-17.66,7.66-18.65,17.91v34.96
			h-14.2V21.12h14.2v12.6c4.69-9.14,13.09-13.09,24.21-13.09C597.61,20.63,606.75,30.26,606.75,45.95z"/>
	</g>
	<g>
		<path d="M76.47,137.92v-2.98H98.1v2.98H76.47z M83.13,171.11v-41.72c0-3,0.87-5.42,2.6-7.24c1.73-1.83,4.22-2.74,7.45-2.74
			c1.34,0,2.66,0.2,3.95,0.59c1.29,0.39,2.36,0.98,3.19,1.77l-1.39,2.63c-0.69-0.69-1.52-1.2-2.5-1.52s-2.01-0.49-3.12-0.49
			c-2.22,0-3.9,0.61-5.06,1.84c-1.16,1.22-1.73,3.04-1.73,5.44v6.1l0.07,1.66v33.68H83.13z"/>
		<path d="M106.97,171.11v-36.18h3.33v9.91l-0.35-1.11c1.02-2.91,2.73-5.15,5.13-6.72c2.4-1.57,5.41-2.36,9.01-2.36v3.4
			c-0.14,0-0.28-0.01-0.42-0.03s-0.28-0.04-0.42-0.04c-4.02,0-7.16,1.26-9.43,3.78c-2.26,2.52-3.4,6.02-3.4,10.5v18.85H106.97z"/>
		<path d="M149.8,171.39c-3.65,0-6.87-0.79-9.67-2.36c-2.8-1.57-4.99-3.74-6.58-6.51s-2.39-5.94-2.39-9.5c0-3.6,0.75-6.78,2.25-9.53
			c1.5-2.75,3.57-4.91,6.2-6.48c2.63-1.57,5.59-2.36,8.87-2.36c3.28,0,6.23,0.76,8.84,2.29c2.61,1.52,4.67,3.66,6.17,6.41
			c1.5,2.75,2.25,5.93,2.25,9.53c0,0.14-0.01,0.29-0.03,0.45c-0.02,0.16-0.04,0.33-0.04,0.52h-31.95v-2.7h30.08l-1.39,1.32
			c0.04-2.82-0.54-5.35-1.77-7.59c-1.22-2.24-2.88-4-4.96-5.27c-2.08-1.27-4.48-1.91-7.21-1.91c-2.68,0-5.07,0.64-7.17,1.91
			c-2.1,1.27-3.75,3.03-4.96,5.27c-1.2,2.24-1.8,4.79-1.8,7.66v0.62c0,2.96,0.66,5.58,1.98,7.87c1.32,2.29,3.13,4.07,5.44,5.34
			c2.31,1.27,4.94,1.91,7.9,1.91c2.31,0,4.47-0.42,6.48-1.25c2.01-0.83,3.71-2.1,5.09-3.81l2.01,2.29c-1.57,1.94-3.55,3.41-5.93,4.4
			C155.15,170.89,152.57,171.39,149.8,171.39z"/>
		<path d="M187.43,171.39c-3,0-5.81-0.44-8.42-1.32c-2.61-0.88-4.63-1.99-6.06-3.33l1.59-2.77c1.39,1.2,3.23,2.23,5.54,3.08
			c2.31,0.86,4.8,1.28,7.48,1.28c3.79,0,6.51-0.62,8.18-1.87c1.66-1.25,2.5-2.89,2.5-4.92c0-1.48-0.43-2.64-1.28-3.5
			c-0.86-0.85-2-1.51-3.43-1.97c-1.43-0.46-3-0.84-4.71-1.14c-1.71-0.3-3.42-0.63-5.13-1c-1.71-0.37-3.28-0.9-4.71-1.59
			c-1.43-0.69-2.58-1.65-3.43-2.88c-0.86-1.22-1.28-2.85-1.28-4.89c0-1.85,0.51-3.51,1.53-4.99c1.02-1.48,2.54-2.67,4.57-3.57
			c2.03-0.9,4.57-1.35,7.62-1.35c2.26,0,4.54,0.32,6.83,0.97c2.29,0.65,4.15,1.5,5.58,2.56l-1.59,2.77
			c-1.52-1.15-3.23-1.99-5.13-2.5c-1.89-0.51-3.81-0.76-5.75-0.76c-3.51,0-6.09,0.65-7.73,1.94c-1.64,1.29-2.46,2.91-2.46,4.85
			c0,1.52,0.43,2.74,1.28,3.64c0.85,0.9,2,1.59,3.43,2.08c1.43,0.49,3,0.88,4.71,1.18c1.71,0.3,3.42,0.64,5.13,1.01
			c1.71,0.37,3.28,0.89,4.71,1.56c1.43,0.67,2.58,1.59,3.43,2.77c0.85,1.18,1.28,2.76,1.28,4.75c0,1.99-0.54,3.72-1.63,5.2
			c-1.09,1.48-2.69,2.63-4.82,3.46C193.14,170.97,190.52,171.39,187.43,171.39z"/>
		<path d="M230.88,134.66c2.96,0,5.53,0.57,7.73,1.7c2.19,1.13,3.9,2.84,5.13,5.13c1.22,2.29,1.84,5.12,1.84,8.49v21.14h-3.46
			v-20.86c0-4.06-1.03-7.16-3.08-9.29c-2.06-2.12-4.93-3.19-8.63-3.19c-2.82,0-5.27,0.58-7.35,1.73c-2.08,1.16-3.66,2.77-4.75,4.85
			c-1.09,2.08-1.63,4.57-1.63,7.49v19.27h-3.46v-51.42h3.46v25.3l-0.62-1.11c1.11-2.86,2.93-5.12,5.47-6.76
			C224.07,135.48,227.19,134.66,230.88,134.66z"/>
		<path d="M283,126.13c-0.79,0-1.46-0.28-2.01-0.83s-0.83-1.2-0.83-1.94c0-0.79,0.28-1.46,0.83-2.01c0.55-0.55,1.22-0.83,2.01-0.83
			c0.83,0,1.51,0.27,2.04,0.8c0.53,0.53,0.8,1.19,0.8,1.98c0,0.79-0.27,1.46-0.8,2.01S283.83,126.13,283,126.13z M281.27,171.11
			v-36.18h3.46v36.18H281.27z"/>
		<path d="M310.31,171.39c-3,0-5.81-0.44-8.42-1.32c-2.61-0.88-4.63-1.99-6.06-3.33l1.59-2.77c1.39,1.2,3.23,2.23,5.54,3.08
			c2.31,0.86,4.8,1.28,7.48,1.28c3.79,0,6.51-0.62,8.18-1.87c1.66-1.25,2.5-2.89,2.5-4.92c0-1.48-0.43-2.64-1.28-3.5
			c-0.86-0.85-2-1.51-3.43-1.97c-1.43-0.46-3-0.84-4.71-1.14c-1.71-0.3-3.42-0.63-5.13-1c-1.71-0.37-3.28-0.9-4.71-1.59
			c-1.43-0.69-2.58-1.65-3.43-2.88c-0.86-1.22-1.28-2.85-1.28-4.89c0-1.85,0.51-3.51,1.53-4.99c1.02-1.48,2.54-2.67,4.57-3.57
			c2.03-0.9,4.57-1.35,7.62-1.35c2.26,0,4.54,0.32,6.83,0.97c2.29,0.65,4.15,1.5,5.58,2.56l-1.59,2.77
			c-1.52-1.15-3.23-1.99-5.13-2.5c-1.9-0.51-3.81-0.76-5.75-0.76c-3.51,0-6.09,0.65-7.73,1.94c-1.64,1.29-2.46,2.91-2.46,4.85
			c0,1.52,0.43,2.74,1.28,3.64c0.85,0.9,2,1.59,3.43,2.08c1.43,0.49,3,0.88,4.71,1.18c1.71,0.3,3.42,0.64,5.13,1.01
			c1.71,0.37,3.28,0.89,4.71,1.56c1.43,0.67,2.58,1.59,3.43,2.77c0.85,1.18,1.28,2.76,1.28,4.75c0,1.99-0.54,3.72-1.63,5.2
			c-1.09,1.48-2.69,2.63-4.82,3.46C316.01,170.97,313.4,171.39,310.31,171.39z"/>
		<path d="M373.37,134.66c2.96,0,5.53,0.57,7.73,1.7c2.19,1.13,3.9,2.84,5.13,5.13c1.22,2.29,1.84,5.12,1.84,8.49v21.14h-3.46
			v-20.86c0-4.06-1.03-7.16-3.08-9.29s-4.93-3.19-8.63-3.19c-2.82,0-5.27,0.58-7.35,1.73c-2.08,1.16-3.66,2.77-4.75,4.85
			c-1.09,2.08-1.63,4.57-1.63,7.49v19.27h-3.46v-51.42h3.46v25.3l-0.62-1.11c1.11-2.86,2.93-5.12,5.48-6.76
			C366.56,135.48,369.67,134.66,373.37,134.66z"/>
		<path d="M418.83,171.39c-3.65,0-6.87-0.79-9.67-2.36c-2.8-1.57-4.99-3.74-6.58-6.51s-2.39-5.94-2.39-9.5
			c0-3.6,0.75-6.78,2.25-9.53c1.5-2.75,3.57-4.91,6.2-6.48c2.63-1.57,5.59-2.36,8.87-2.36c3.28,0,6.23,0.76,8.84,2.29
			c2.61,1.52,4.67,3.66,6.17,6.41c1.5,2.75,2.25,5.93,2.25,9.53c0,0.14-0.01,0.29-0.04,0.45s-0.03,0.33-0.03,0.52h-31.95v-2.7h30.08
			l-1.39,1.32c0.05-2.82-0.54-5.35-1.77-7.59c-1.23-2.24-2.88-4-4.96-5.27c-2.08-1.27-4.48-1.91-7.21-1.91
			c-2.68,0-5.07,0.64-7.17,1.91c-2.1,1.27-3.75,3.03-4.96,5.27c-1.2,2.24-1.8,4.79-1.8,7.66v0.62c0,2.96,0.66,5.58,1.98,7.87
			c1.32,2.29,3.13,4.07,5.44,5.34c2.31,1.27,4.94,1.91,7.9,1.91c2.31,0,4.47-0.42,6.48-1.25c2.01-0.83,3.71-2.1,5.09-3.81l2.01,2.29
			c-1.57,1.94-3.55,3.41-5.93,4.4C424.18,170.89,421.61,171.39,418.83,171.39z"/>
		<path d="M447.32,171.11v-36.18h3.33v9.91l-0.35-1.11c1.02-2.91,2.73-5.15,5.13-6.72c2.4-1.57,5.41-2.36,9.01-2.36v3.4
			c-0.14,0-0.28-0.01-0.42-0.03s-0.28-0.04-0.42-0.04c-4.02,0-7.16,1.26-9.42,3.78c-2.26,2.52-3.4,6.02-3.4,10.5v18.85H447.32z"/>
		<path d="M490.15,171.39c-3.65,0-6.87-0.79-9.67-2.36c-2.8-1.57-4.99-3.74-6.58-6.51s-2.39-5.94-2.39-9.5
			c0-3.6,0.75-6.78,2.25-9.53c1.5-2.75,3.57-4.91,6.2-6.48c2.63-1.57,5.59-2.36,8.87-2.36c3.28,0,6.23,0.76,8.84,2.29
			c2.61,1.52,4.67,3.66,6.17,6.41c1.5,2.75,2.25,5.93,2.25,9.53c0,0.14-0.01,0.29-0.04,0.45s-0.03,0.33-0.03,0.52h-31.95v-2.7h30.08
			l-1.39,1.32c0.05-2.82-0.54-5.35-1.77-7.59c-1.23-2.24-2.88-4-4.96-5.27c-2.08-1.27-4.48-1.91-7.21-1.91
			c-2.68,0-5.07,0.64-7.17,1.91c-2.1,1.27-3.75,3.03-4.96,5.27c-1.2,2.24-1.8,4.79-1.8,7.66v0.62c0,2.96,0.66,5.58,1.98,7.87
			c1.32,2.29,3.13,4.07,5.44,5.34c2.31,1.27,4.94,1.91,7.9,1.91c2.31,0,4.47-0.42,6.48-1.25c2.01-0.83,3.71-2.1,5.09-3.81l2.01,2.29
			c-1.57,1.94-3.55,3.41-5.93,4.4C495.5,170.89,492.92,171.39,490.15,171.39z"/>
	</g>
</g>
</svg>
